{
  "accessors": [
    {
      "bufferView": 2,
      "componentType": 5126,
      "count": 522,
      "max": [
        1275.1658935546875,
        1275.1658935546875,
        25.0
      ],
      "min": [
        -1275.1658935546875,
        -0.00016341271111741662,
        -626.8895263671875
      ],
      "type": "VEC3"
    },
    {
      "bufferView": 2,
      "byteOffset": 6264,
      "componentType": 5126,
      "count": 522,
      "max": [
        1.0,
        1.0,
        0.9996488094329834
      ],
      "min": [
        -1.0,
        -1.0,
        -0.9996488094329834
      ],
      "type": "VEC3"
    },
    {
      "bufferView": 3,
      "componentType": 5126,
      "count": 522,
      "max": [
        1.0,
        0.9934489727020264,
        1.0,
        1.0
      ],
      "min": [
        -3.731471167611744e-07,
        -0.993543267250061,
        -1.0,
        1.0
      ],
      "type": "VEC4"
    },
    {
      "bufferView": 1,
      "componentType": 5126,
      "count": 522,
      "max": [
        0.9303713440895081,
        0.4099390506744385
      ],
      "min": [
        0.007088549435138702,
        0.014529749751091003
      ],
      "type": "VEC2"
    },
    {
      "bufferView": 0,
      "componentType": 5125,
      "count": 1968,
      "type": "SCALAR"
    },
    {
      "bufferView": 2,
      "byteOffset": 12528,
      "componentType": 5126,
      "count": 254,
      "max": [
        1094.68408203125,
        3173.2861328125,
        2033.408935546875
      ],
      "min": [
        -30.000303268432617,
        -35.9738883972168,
        -7.62939453125e-05
      ],
      "type": "VEC3"
    },
    {
      "bufferView": 2,
      "byteOffset": 15576,
      "componentType": 5126,
      "count": 254,
      "max": [
        1.0,
        1.0,
        0.9659259915351868
      ],
      "min": [
        -1.0,
        -1.0,
        -0.9659265279769897
      ],
      "type": "VEC3"
    },
    {
      "bufferView": 3,
      "byteOffset": 8352,
      "componentType": 5126,
      "count": 254,
      "max": [
        1.0,
        1.0,
        0.9659258723258972,
        1.0
      ],
      "min": [
        -1.0,
        -1.0,
        -1.0,
        1.0
      ],
      "type": "VEC4"
    },
    {
      "bufferView": 1,
      "byteOffset": 4176,
      "componentType": 5126,
      "count": 254,
      "max": [
        0.9929338693618774,
        0.993041455745697
      ],
      "min": [
        0.011467993259429932,
        0.08026646822690964
      ],
      "type": "VEC2"
    },
    {
      "bufferView": 0,
      "byteOffset": 7872,
      "componentType": 5125,
      "count": 528,
      "type": "SCALAR"
    },
    {
      "bufferView": 2,
      "byteOffset": 18624,
      "componentType": 5126,
      "count": 362,
      "max": [
        345.62042236328125,
        70.686767578125,
        570.776611328125
      ],
      "min": [
        -311.609619140625,
        -1750.680419921875,
        0.0
      ],
      "type": "VEC3"
    },
    {
      "bufferView": 2,
      "byteOffset": 22968,
      "componentType": 5126,
      "count": 362,
      "max": [
        1.0,
        1.0,
        1.0
      ],
      "min": [
        -1.0,
        -1.0,
        -1.0
      ],
      "type": "VEC3"
    },
    {
      "bufferView": 3,
      "byteOffset": 12416,
      "componentType": 5126,
      "count": 362,
      "max": [
        1.0,
        1.0,
        1.0,
        1.0
      ],
      "min": [
        -1.0,
        -1.0,
        -1.0,
        1.0
      ],
      "type": "VEC4"
    },
    {
      "bufferView": 1,
      "byteOffset": 6208,
      "componentType": 5126,
      "count": 362,
      "max": [
        0.5497078895568848,
        0.9924560785293579
      ],
      "min": [
        0.01273202896118164,
        0.6369051933288574
      ],
      "type": "VEC2"
    },
    {
      "bufferView": 0,
      "byteOffset": 9984,
      "componentType": 5125,
      "count": 1260,
      "type": "SCALAR"
    },
    {
      "bufferView": 2,
      "byteOffset": 27312,
      "componentType": 5126,
      "count": 362,
      "max": [
        345.62042236328125,
        70.686767578125,
        570.776611328125
      ],
      "min": [
        -311.609619140625,
        -1750.680419921875,
        0.0
      ],
      "type": "VEC3"
    },
    {
      "bufferView": 2,
      "byteOffset": 31656,
      "componentType": 5126,
      "count": 362,
      "max": [
        1.0,
        1.0,
        1.0
      ],
      "min": [
        -1.0,
        -1.0,
        -1.0
      ],
      "type": "VEC3"
    },
    {
      "bufferView": 3,
      "byteOffset": 18208,
      "componentType": 5126,
      "count": 362,
      "max": [
        1.0,
        1.0,
        1.0,
        1.0
      ],
      "min": [
        -1.0,
        -1.0,
        -1.0,
        1.0
      ],
      "type": "VEC4"
    },
    {
      "bufferView": 1,
      "byteOffset": 9104,
      "componentType": 5126,
      "count": 362,
      "max": [
        0.79853755235672,
        0.9921184182167053
      ],
      "min": [
        0.010478917509317398,
        0.629035472869873
      ],
      "type": "VEC2"
    },
    {
      "bufferView": 0,
      "byteOffset": 15024,
      "componentType": 5125,
      "count": 1260,
      "type": "SCALAR"
    },
    {
      "bufferView": 2,
      "byteOffset": 36000,
      "componentType": 5126,
      "count": 374,
      "max": [
        56.03392028808594,
        181.04373168945313,
        2500.0
      ],
      "min": [
        -126.76805114746094,
        -65.95047760009766,
        -2.6645352591003757e-14
      ],
      "type": "VEC3"
    },
    {
      "bufferView": 2,
      "byteOffset": 40488,
      "componentType": 5126,
      "count": 374,
      "max": [
        1.0,
        1.0,
        1.0
      ],
      "min": [
        -1.0,
        -1.0,
        -1.0
      ],
      "type": "VEC3"
    },
    {
      "bufferView": 3,
      "byteOffset": 24000,
      "componentType": 5126,
      "count": 374,
      "max": [
        0.9896349310874939,
        0.9840829968452454,
        1.0,
        1.0
      ],
      "min": [
        -0.9902020692825317,
        -0.9850462675094604,
        -1.0,
        1.0
      ],
      "type": "VEC4"
    },
    {
      "bufferView": 1,
      "byteOffset": 12000,
      "componentType": 5126,
      "count": 374,
      "max": [
        0.9193718433380127,
        0.6303825378417969
      ],
      "min": [
        0.0022082789801061153,
        0.2579110264778137
      ],
      "type": "VEC2"
    },
    {
      "bufferView": 0,
      "byteOffset": 20064,
      "componentType": 5125,
      "count": 1056,
      "type": "SCALAR"
    },
    {
      "bufferView": 2,
      "byteOffset": 44976,
      "componentType": 5126,
      "count": 218,
      "max": [
        177.1107940673828,
        250.84906005859375,
        246.3748779296875
      ],
      "min": [
        -177.11077880859375,
        -205.0860595703125,
        -24.84173583984375
      ],
      "type": "VEC3"
    },
    {
      "bufferView": 2,
      "byteOffset": 47592,
      "componentType": 5126,
      "count": 218,
      "max": [
        1.0,
        1.0,
        1.0
      ],
      "min": [
        -0.9671247601509094,
        -0.985233724117279,
        -1.0
      ],
      "type": "VEC3"
    },
    {
      "bufferView": 3,
      "byteOffset": 29984,
      "componentType": 5126,
      "count": 218,
      "max": [
        0.98578280210495,
        1.0,
        1.0,
        1.0
      ],
      "min": [
        -0.9864901304244995,
        -1.0,
        -0.6488113403320313,
        1.0
      ],
      "type": "VEC4"
    },
    {
      "bufferView": 1,
      "byteOffset": 14992,
      "componentType": 5126,
      "count": 218,
      "max": [
        0.7074552774429321,
        0.5324127674102783
      ],
      "min": [
        0.007706580683588982,
        0.32733020186424255
      ],
      "type": "VEC2"
    },
    {
      "bufferView": 0,
      "byteOffset": 24288,
      "componentType": 5125,
      "count": 948,
      "type": "SCALAR"
    },
    {
      "bufferView": 4,
      "componentType": 5126,
      "count": 241,
      "max": [
        8.0
      ],
      "min": [
        0.0
      ],
      "type": "SCALAR"
    },
    {
      "bufferView": 6,
      "componentType": 5126,
      "count": 241,
      "max": [
        4.972721670274355e-33,
        1.0632885650583262e-17,
        0.1736481934785843,
        1.0
      ],
      "min": [
        -2.951531500406404e-33,
        -1.0632885650583262e-17,
        -0.1736481934785843,
        0.9848077297210693
      ],
      "type": "VEC4"
    },
    {
      "bufferView": 4,
      "byteOffset": 964,
      "componentType": 5126,
      "count": 241,
      "max": [
        8.0
      ],
      "min": [
        0.0
      ],
      "type": "SCALAR"
    },
    {
      "bufferView": 6,
      "byteOffset": 3856,
      "componentType": 5126,
      "count": 241,
      "max": [
        4.972721670274355e-33,
        1.0632885650583262e-17,
        0.1736481934785843,
        1.0
      ],
      "min": [
        -3.0473440245610132e-33,
        -1.0632885650583262e-17,
        -0.1736481934785843,
        0.9848077297210693
      ],
      "type": "VEC4"
    },
    {
      "bufferView": 4,
      "byteOffset": 1928,
      "componentType": 5126,
      "count": 1,
      "max": [
        0.0
      ],
      "min": [
        0.0
      ],
      "type": "SCALAR"
    },
    {
      "bufferView": 5,
      "componentType": 5126,
      "count": 1,
      "max": [
        1.1368683772161603e-13,
        46.931884765625,
        -17.18426513671875
      ],
      "min": [
        1.1368683772161603e-13,
        46.931884765625,
        -17.18426513671875
      ],
      "type": "VEC3"
    },
    {
      "bufferView": 4,
      "byteOffset": 1932,
      "componentType": 5126,
      "count": 241,
      "max": [
        8.0
      ],
      "min": [
        0.0
      ],
      "type": "SCALAR"
    },
    {
      "bufferView": 6,
      "byteOffset": 7712,
      "componentType": 5126,
      "count": 241,
      "max": [
        0.6810999512672424,
        0.45509666204452515,
        0.681100070476532,
        0.4550965130329132
      ],
      "min": [
        0.4769112765789032,
        0.3186620771884918,
        0.47691136598587036,
        0.31866198778152466
      ],
      "type": "VEC4"
    }
  ],
  "animations": [
    {
      "channels": [
        {
          "sampler": 0,
          "target": {
            "node": 8,
            "path": "rotation"
          }
        },
        {
          "sampler": 1,
          "target": {
            "node": 10,
            "path": "rotation"
          }
        },
        {
          "sampler": 2,
          "target": {
            "node": 13,
            "path": "translation"
          }
        },
        {
          "sampler": 3,
          "target": {
            "node": 13,
            "path": "rotation"
          }
        }
      ],
      "name": "Take 001",
      "samplers": [
        {
          "input": 30,
          "interpolation": "LINEAR",
          "output": 31
        },
        {
          "input": 32,
          "interpolation": "LINEAR",
          "output": 33
        },
        {
          "input": 34,
          "interpolation": "LINEAR",
          "output": 35
        },
        {
          "input": 36,
          "interpolation": "LINEAR",
          "output": 37
        }
      ]
    }
  ],
  "asset": {
    "extras": {
      "author": "sergeilihandristov (https://sketchfab.com/sergeilihandristov)",
      "license": "CC-BY-4.0 (http://creativecommons.org/licenses/by/4.0/)",
      "source": "https://sketchfab.com/3d-models/abandoned-playground-fee40d7bf3e24de5b694d7aa3486066a",
      "title": "Abandoned Playground"
    },
    "generator": "Sketchfab-13.74.0",
    "version": "2.0"
  },
  "bufferViews": [
    {
      "buffer": 0,
      "byteLength": 28080,
      "name": "floatBufferViews",
      "target": 34963
    },
    {
      "buffer": 0,
      "byteLength": 16736,
      "byteOffset": 28080,
      "byteStride": 8,
      "name": "floatBufferViews",
      "target": 34962
    },
    {
      "buffer": 0,
      "byteLength": 50208,
      "byteOffset": 44816,
      "byteStride": 12,
      "name": "floatBufferViews",
      "target": 34962
    },
    {
      "buffer": 0,
      "byteLength": 33472,
      "byteOffset": 95024,
      "byteStride": 16,
      "name": "floatBufferViews",
      "target": 34962
    },
    {
      "buffer": 0,
      "byteLength": 2896,
      "byteOffset": 128496,
      "name": "floatBufferViews"
    },
    {
      "buffer": 0,
      "byteLength": 12,
      "byteOffset": 131392,
      "byteStride": 12,
      "name": "floatBufferViews"
    },
    {
      "buffer": 0,
      "byteLength": 11568,
      "byteOffset": 131404,
      "byteStride": 16,
      "name": "floatBufferViews"
    }
  ],
  "buffers": [
    {
      "byteLength": 142972,
      "uri": "scene.bin"
    }
  ],
  "images": [
    {
      "uri": "textures/Scene_-_Root_baseColor.jpeg"
    },
    {
      "uri": "textures/Scene_-_Root_metallicRoughness.png"
    },
    {
      "uri": "textures/Scene_-_Root_normal.png"
    }
  ],
  "materials": [
    {
      "doubleSided": true,
      "name": "Scene_-_Root",
      "normalTexture": {
        "index": 2
      },
      "occlusionTexture": {
        "index": 1
      },
      "pbrMetallicRoughness": {
        "baseColorTexture": {
          "index": 0
        },
        "metallicRoughnessTexture": {
          "index": 1
        }
      }
    }
  ],
  "meshes": [
    {
      "name": "Circle002__0",
      "primitives": [
        {
          "attributes": {
            "NORMAL": 1,
            "POSITION": 0,
            "TANGENT": 2,
            "TEXCOORD_0": 3
          },
          "indices": 4,
          "material": 0,
          "mode": 4
        }
      ]
    },
    {
      "name": "Cylinder006__0",
      "primitives": [
        {
          "attributes": {
            "NORMAL": 6,
            "POSITION": 5,
            "TANGENT": 7,
            "TEXCOORD_0": 8
          },
          "indices": 9,
          "material": 0,
          "mode": 4
        }
      ]
    },
    {
      "name": "Cylinder007__0",
      "primitives": [
        {
          "attributes": {
            "NORMAL": 11,
            "POSITION": 10,
            "TANGENT": 12,
            "TEXCOORD_0": 13
          },
          "indices": 14,
          "material": 0,
          "mode": 4
        }
      ]
    },
    {
      "name": "Cylinder008__0",
      "primitives": [
        {
          "attributes": {
            "NORMAL": 16,
            "POSITION": 15,
            "TANGENT": 17,
            "TEXCOORD_0": 18
          },
          "indices": 19,
          "material": 0,
          "mode": 4
        }
      ]
    },
    {
      "name": "Cylinder003__0",
      "primitives": [
        {
          "attributes": {
            "NORMAL": 21,
            "POSITION": 20,
            "TANGENT": 22,
            "TEXCOORD_0": 23
          },
          "indices": 24,
          "material": 0,
          "mode": 4
        }
      ]
    },
    {
      "name": "Line001__0",
      "primitives": [
        {
          "attributes": {
            "NORMAL": 26,
            "POSITION": 25,
            "TANGENT": 27,
            "TEXCOORD_0": 28
          },
          "indices": 29,
          "material": 0,
          "mode": 4
        }
      ]
    }
  ],
  "nodes": [
    {
      "children": [
        1
      ],
      "matrix": [
        1.0,
        0.0,
        0.0,
        0.0,
        0.0,
        2.220446049250313e-16,
        -1.0,
        0.0,
        0.0,
        1.0,
        2.220446049250313e-16,
        0.0,
        0.0,
        0.0,
        0.0,
        1.0
      ],
      "name": "Sketchfab_model"
    },
    {
      "children": [
        2
      ],
      "matrix": [
        0.0010000000474974513,
        0.0,
        0.0,
        0.0,
        0.0,
        0.0,
        0.0010000000474974513,
        0.0,
        0.0,
        -0.0010000000474974513,
        0.0,
        0.0,
        0.0,
        0.0,
        0.0,
        1.0
      ],
      "name": "70c53aecbd884e829a4e25af45aa514e.fbx"
    },
    {
      "children": [
        3
      ],
      "name": "Object_2"
    },
    {
      "children": [
        4,
        6,
        8,
        10,
        12
      ],
      "name": "RootNode"
    },
    {
      "children": [
        5
      ],
      "name": "Circle002",
      "rotation": [
        1.8679919833175518e-08,
        0.5191329121589661,
        -1.1346010353463498e-08,
        0.8546935319900513
      ],
      "translation": [
        -1823.5296630859375,
        4.390886306762695,
        122.497314453125
      ]
    },
    {
      "mesh": 0,
      "name": "Circle002__0"
    },
    {
      "children": [
        7
      ],
      "name": "Cylinder006",
      "rotation": [
        -0.09229599684476852,
        0.7010574340820313,
        0.7010574340820313,
        -0.09229592978954315
      ],
      "translation": [
        530.9464111328125,
        0.0,
        -3260.967529296875
      ]
    },
    {
      "mesh": 1,
      "name": "Cylinder006__0"
    },
    {
      "children": [
        9
      ],
      "name": "Cylinder007",
      "rotation": [
        2.152365752294827e-08,
        3.79520193050098e-09,
        0.17364820837974548,
        0.9848078489303589
      ],
      "scale": [
        0.8468549847602844,
        0.8468549847602844,
        1.0
      ],
      "translation": [
        -22.564847946166992,
        1715.9970703125,
        -2706.33544921875
      ]
    },
    {
      "mesh": 2,
      "name": "Cylinder007__0"
    },
    {
      "children": [
        11
      ],
      "name": "Cylinder008",
      "rotation": [
        2.152365752294827e-08,
        -3.79520193050098e-09,
        -0.17364820837974548,
        0.9848078489303589
      ],
      "scale": [
        0.8468549847602844,
        0.8468549847602844,
        1.0
      ],
      "translation": [
        -22.564847946166992,
        1715.9970703125,
        -1258.375
      ]
    },
    {
      "mesh": 3,
      "name": "Cylinder008__0"
    },
    {
      "children": [
        13,
        16
      ],
      "name": "Group001",
      "rotation": [
        -0.645837664604187,
        0.2879126965999603,
        0.2879126965999603,
        0.645837664604187
      ],
      "translation": [
        1126.3486328125,
        447.4150390625,
        -238.067138671875
      ]
    },
    {
      "children": [
        14
      ],
      "name": "Cylinder003",
      "rotation": [
        0.6810999512672424,
        0.45509663224220276,
        0.47691136598587036,
        0.31866201758384705
      ],
      "translation": [
        -1.1368683772161603e-13,
        46.93194580078125,
        -17.18426513671875
      ]
    },
    {
      "children": [
        15
      ],
      "matrix": [
        1.0,
        0.0,
        -0.0,
        0.0,
        0.0,
        1.0,
        0.0,
        0.0,
        0.0,
        0.0,
        1.0,
        0.0,
        -3.8941048842389137e-05,
        2.7554648113436997e-05,
        -1250.0,
        1.0
      ],
      "name": "Object_14"
    },
    {
      "mesh": 4,
      "name": "Cylinder003__0"
    },
    {
      "children": [
        17
      ],
      "name": "Line001",
      "rotation": [
        1.1590385184945262e-07,
        0.7071068286895752,
        0.7071068286895752,
        1.1590384474402526e-07
      ],
      "translation": [
        -6.103515625e-05,
        -110.7666015625,
        -247.4150390625
      ]
    },
    {
      "mesh": 5,
      "name": "Line001__0"
    }
  ],
  "samplers": [
    {
      "magFilter": 9729,
      "minFilter": 9987,
      "wrapS": 10497,
      "wrapT": 10497
    }
  ],
  "scene": 0,
  "scenes": [
    {
      "name": "Sketchfab_Scene",
      "nodes": [
        0
      ]
    }
  ],
  "textures": [
    {
      "sampler": 0,
      "source": 0
    },
    {
      "sampler": 0,
      "source": 1
    },
    {
      "sampler": 0,
      "source": 2
    }
  ]
}
