# Blender 3.3.1
# www.blender.org
mtllib StubNose38SpecialRevolver.mtl
o 38SpecialBullet
v 0.757828 0.564587 0.051941
v 0.757828 0.827724 0.051941
v 0.715258 0.564587 0.009371
v 0.715258 0.827724 0.009371
v 0.800398 0.564587 0.009371
v 0.800398 0.827724 0.009371
v 0.757828 0.905804 0.030575
v 0.737975 0.905804 0.009371
v 0.777681 0.905804 0.009371
v 0.757828 0.564587 -0.033199
v 0.757828 0.827724 -0.033199
v 0.757828 0.905804 -0.011831
vn 0.7071 -0.0000 0.7071
vn -0.7071 -0.0000 0.7071
vn -0.0000 -1.0000 -0.0000
vn 0.7008 0.1958 0.6860
vn -0.7008 0.1958 0.6860
vn 0.7071 -0.0000 -0.7071
vn -0.7071 -0.0000 -0.7071
vn -0.0000 1.0000 -0.0000
vn 0.7008 0.1958 -0.6860
vn -0.7008 0.1958 -0.6860
vt 0.721409 0.769745
vt 0.872245 0.896722
vt 0.225979 0.761354
vt 0.208918 0.745377
vt 0.770126 0.719124
vt 0.722189 0.654546
vt 0.226760 0.646155
vt 0.209698 0.630177
vt 0.974364 0.719124
vt 0.720628 0.875814
vt 0.225198 0.876553
vt 0.208137 0.860576
vt 0.087423 0.742887
vt 0.089100 0.693729
vt 0.087059 0.789763
vt 0.872245 0.541525
vt 0.721409 0.769745
vt 0.225979 0.761354
vt 0.208918 0.745377
vt 0.087423 0.742887
s 0
usemtl Material.024
f 5/10/1 6/11/1 2/3/1 1/1/1
f 1/1/2 2/3/2 4/7/2 3/6/2
f 1/2/3 3/5/3 10/16/3 5/9/3
f 2/4/4 6/12/4 9/15/4 7/13/4
f 4/8/5 2/4/5 7/13/5 8/14/5
f 5/10/6 10/17/6 11/18/6 6/11/6
f 10/17/7 3/6/7 4/7/7 11/18/7
f 8/14/8 7/13/8 9/15/8 12/20/8
f 11/19/9 12/20/9 9/15/9 6/12/9
f 4/8/10 8/14/10 12/20/10 11/19/10
o SnubNoseBody
v -0.712798 0.874300 -0.000396
v -0.654321 0.074735 -0.000396
v 0.553974 1.355748 0.092332
v 0.470013 0.845793 0.092332
v -0.746333 0.199028 0.099270
v -0.672380 0.795493 0.090987
v -0.902584 0.403840 0.099271
v -0.885845 0.194680 0.099270
v -0.992453 0.069509 -0.000396
v 0.553974 1.384274 -0.000396
v -0.998981 0.431382 -0.000396
v 0.511934 0.798073 -0.000396
v -0.592971 0.447831 -0.000396
v -0.619479 0.612262 0.101132
v -0.655772 1.099640 0.051329
v -0.669923 1.095784 -0.000396
v -0.460224 0.709479 -0.000396
v -0.501731 0.748036 0.099271
v -0.452254 1.157944 -0.000396
v -0.451962 1.156954 0.066715
v -0.347004 0.791871 0.089026
v -0.327877 1.266328 -0.000396
v -0.347004 0.743907 -0.000396
v -0.327877 1.266328 0.089026
v -0.291318 0.843030 0.092332
v -0.208411 1.406358 -0.000396
v -0.291317 0.790455 -0.000396
v -0.214493 1.370093 0.092332
v 0.392451 0.870988 0.092332
v 0.451495 1.408716 -0.000396
v 0.392451 1.344198 0.092332
v 0.392451 1.382845 0.092332
v -0.117315 1.338727 0.092332
v -0.116377 1.382845 0.092332
v -0.124377 0.864608 0.092332
v -0.115777 1.405841 -0.000396
v 0.556065 1.068062 0.092332
v 0.556065 1.068062 -0.000396
v -0.995717 0.250446 -0.000396
v -0.337441 1.005118 0.089026
v 0.392451 0.943085 0.092332
v -0.122461 0.940268 0.092332
v 0.392451 1.344198 -0.000396
v -0.117315 1.338727 -0.000396
v 0.392451 0.943085 -0.000396
v -0.122461 0.940268 -0.000396
v -0.128388 0.476996 0.019893
v 0.138278 0.493834 0.019893
v -0.146514 0.451603 -0.000396
v 0.142446 0.462916 -0.000396
v 0.254753 0.606207 0.019893
v 0.283909 0.595106 -0.000396
v 0.259529 0.742818 0.019893
v 0.288685 0.731717 -0.000396
v -0.213123 0.663164 0.019893
v -0.243290 0.655206 -0.000396
v -0.196083 0.857825 0.013542
v -0.354526 0.748777 -0.000396
v 0.187216 0.805178 0.019893
v 0.347730 0.798059 -0.000396
v 0.556185 1.118127 -0.000396
v 0.666201 1.118127 -0.000396
v 0.556185 1.170794 -0.000396
v 0.666201 1.170794 -0.000396
v 0.385033 1.280499 0.088282
v 0.921172 1.280499 0.088282
v 0.385033 1.192182 -0.000396
v 0.385033 1.368817 -0.000396
v 0.921172 1.192182 -0.000396
v 0.921172 1.368817 -0.000396
v 0.688216 1.155830 0.039261
v 0.781714 1.155830 0.039261
v 0.688216 1.116533 -0.000396
v 0.688216 1.195127 -0.000396
v 0.760664 1.116533 -0.000396
v 0.833851 1.195127 -0.000396
v 0.553974 1.355748 -0.093124
v 0.470013 0.845793 -0.093124
v -0.746333 0.199028 -0.100064
v -0.672380 0.795493 -0.091779
v -0.902584 0.403840 -0.100064
v -0.885845 0.194680 -0.100064
v -0.619479 0.612262 -0.101924
v -0.655772 1.099640 -0.052121
v -0.501731 0.748036 -0.100064
v -0.451962 1.156954 -0.067507
v -0.347004 0.791871 -0.089819
v -0.327877 1.266328 -0.089819
v -0.291318 0.843030 -0.093124
v -0.214493 1.370093 -0.093124
v 0.392451 0.870988 -0.093124
v 0.392451 1.344198 -0.093124
v 0.392451 1.382845 -0.093124
v -0.117315 1.338727 -0.093124
v -0.116377 1.382845 -0.093124
v -0.124377 0.864608 -0.093124
v 0.556065 1.068062 -0.093124
v -0.337441 1.005118 -0.089819
v 0.392451 0.943085 -0.093124
v -0.122461 0.940268 -0.093124
v -0.128388 0.476996 -0.020685
v 0.138278 0.493834 -0.020685
v 0.254753 0.606207 -0.020685
v 0.259529 0.742818 -0.020685
v -0.213123 0.663164 -0.020685
v -0.196083 0.857825 -0.014334
v 0.187216 0.805178 -0.020685
v 0.385033 1.280499 -0.089073
v 0.921172 1.280499 -0.089073
v 0.688216 1.155830 -0.040052
v 0.781714 1.155830 -0.040052
v 0.795121 1.368404 0.000002
v 0.920911 1.369301 0.000002
v 0.823686 1.426594 0.000002
v 0.897281 1.425263 0.000002
v 0.823685 1.426596 0.009922
v 0.897077 1.425437 0.009922
v 0.823685 1.426596 -0.010059
v 0.897077 1.425437 -0.010059
v 0.795124 1.368954 0.009922
v 0.795124 1.368954 -0.010059
v 0.556185 1.118127 -0.000396
v 0.666201 1.118127 -0.000396
v 0.556185 1.170794 -0.000396
v 0.666201 1.170794 -0.000396
v 0.795121 1.368404 0.000002
v 0.920911 1.369301 0.000002
v 0.823686 1.426594 0.000002
v 0.897281 1.425263 0.000002
vn -0.6283 0.3954 0.6700
vn 0.0125 -0.6246 0.7808
vn 0.0053 -0.8017 0.5977
vn 1.0000 0.0069 0.0011
vn -0.2730 0.9620 0.0100
vn -0.0662 0.0419 0.9969
vn -0.7019 -0.0360 0.7113
vn -0.9008 0.1331 0.4132
vn 0.7191 -0.1737 0.6729
vn -0.6594 0.7518 0.0060
vn 0.6549 -0.4098 0.6349
vn -0.7193 0.6855 0.1125
vn 0.2663 -0.8530 0.4488
vn -0.0610 0.9514 0.3018
vn 0.6019 -0.6991 0.3859
vn -0.0000 -0.0000 1.0000
vn 0.1809 0.9267 0.3294
vn -1.0000 -0.0000 -0.0000
vn 0.9999 -0.0129 -0.0000
vn -0.0026 0.9672 0.2540
vn -0.6752 -0.0122 0.7375
vn 0.9299 -0.2459 0.2735
vn -0.0155 0.0136 0.9998
vn -0.0603 0.0957 0.9936
vn -0.0428 0.0041 0.9991
vn -0.1117 0.8645 -0.4901
vn -0.0055 1.0000 -0.0000
vn 0.0107 -0.9999 -0.0000
vn 0.0299 -0.5892 0.8074
vn 0.4162 -0.4389 0.7963
vn 0.5660 -0.0198 0.8242
vn -0.5205 -0.2424 0.8187
vn -0.1601 -0.0306 0.9866
vn 0.2112 0.0218 0.9772
vn 1.0000 -0.0000 -0.0000
vn -0.0000 -0.7085 0.7057
vn -0.0000 0.7085 0.7057
vn 0.7035 -0.6551 0.2757
vn -0.0000 -0.7103 0.7039
vn -0.0000 0.7103 0.7039
vn -0.6283 0.3954 -0.6700
vn 0.0125 -0.6246 -0.7808
vn 0.0053 -0.8017 -0.5977
vn 1.0000 0.0069 -0.0011
vn -0.2730 0.9620 -0.0100
vn -0.0662 0.0419 -0.9969
vn -0.7019 -0.0360 -0.7113
vn -0.9008 0.1331 -0.4132
vn 0.7191 -0.1737 -0.6729
vn -0.6594 0.7518 -0.0060
vn 0.6549 -0.4098 -0.6349
vn -0.7193 0.6855 -0.1125
vn 0.2663 -0.8530 -0.4488
vn -0.0610 0.9514 -0.3018
vn 0.6019 -0.6991 -0.3859
vn -0.0000 -0.0000 -1.0000
vn 0.1809 0.9267 -0.3294
vn -0.0026 0.9672 -0.2540
vn -0.6752 -0.0122 -0.7375
vn 0.9299 -0.2459 -0.2735
vn -0.0155 0.0136 -0.9998
vn -0.0603 0.0957 -0.9936
vn -0.0428 0.0041 -0.9991
vn -0.1117 0.8645 0.4901
vn 0.0299 -0.5892 -0.8074
vn 0.4162 -0.4389 -0.7963
vn 0.5660 -0.0198 -0.8242
vn -0.5205 -0.2424 -0.8187
vn -0.1601 -0.0306 -0.9866
vn 0.2112 0.0218 -0.9772
vn -0.0000 -0.7085 -0.7057
vn -0.0000 0.7085 -0.7057
vn 0.7035 -0.6551 -0.2757
vn -0.0000 -0.7103 -0.7039
vn -0.0000 0.7103 -0.7039
vn 0.0158 0.9999 -0.0000
vn -0.8960 0.4440 -0.0000
vn 0.9962 -0.0872 -0.0000
vn 0.9102 0.4143 -0.0000
vn -0.0630 0.9980 -0.0000
vn -0.6943 0.7197 -0.0000
vn -0.9994 0.0349 -0.0000
vn -0.6531 -0.7573 -0.0000
vt 0.141966 0.550751
vt 0.158371 0.564532
vt 0.147056 0.244747
vt 0.582360 0.748078
vt 0.629603 0.744708
vt 0.340063 0.673039
vt 0.596868 0.545887
vt 0.578494 0.553762
vt 0.122641 0.293727
vt 0.161317 0.528901
vt 0.151474 0.526276
vt 0.061722 0.373579
vt 0.068248 0.292032
vt 0.026684 0.243231
vt 0.621110 0.745953
vt 0.337760 0.677851
vt 0.029868 0.383275
vt 0.613212 0.527282
vt 0.594838 0.535157
vt 0.169933 0.400626
vt 0.169933 0.412084
vt 0.172098 0.466297
vt 0.172098 0.454838
vt 0.245247 0.607389
vt 0.174875 0.626430
vt 0.158470 0.634961
vt 0.242057 0.606520
vt 0.169358 0.624926
vt 0.215439 0.506804
vt 0.234189 0.496022
vt 0.218006 0.519232
vt 0.198735 0.510378
vt 0.218006 0.507774
vt 0.291119 0.620531
vt 0.290818 0.626252
vt 0.291185 0.620307
vt 0.240035 0.655391
vt 0.290884 0.626029
vt 0.237931 0.657307
vt 0.231094 0.750000
vt 0.278331 0.524864
vt 0.318852 0.650681
vt 0.336893 0.527490
vt 0.278331 0.506164
vt 0.288412 0.698033
vt 0.318852 0.650681
vt 0.316084 0.544787
vt 0.625000 0.893906
vt 0.289725 0.695408
vt 0.300042 0.544810
vt 0.250881 0.750000
vt 0.304669 0.494599
vt 0.207345 0.620037
vt 0.300042 0.524312
vt 0.250881 0.624422
vt 0.288347 0.515135
vt 0.209246 0.613427
vt 0.329994 0.750301
vt 0.566628 0.555710
vt 0.318497 0.673703
vt 0.329624 0.686097
vt 0.340150 0.586065
vt 0.566628 0.740204
vt 0.310623 0.664572
vt 0.566628 0.755272
vt 0.336627 0.527427
vt 0.236510 0.610441
vt 0.367882 0.738072
vt 0.224772 0.623499
vt 0.368248 0.755272
vt 0.365128 0.553223
vt 0.271742 0.750000
vt 0.223016 0.627427
vt 0.580824 0.598809
vt 0.630418 0.632545
vt 0.603513 0.630577
vt 0.608763 0.626639
vt 0.621048 0.602754
vt 0.608763 0.626639
vt 0.025411 0.313774
vt 0.500000 0.893906
vt 0.332049 0.532933
vt 0.566628 0.576601
vt 0.566628 0.583819
vt 0.354246 0.572128
vt 0.249514 0.557694
vt 0.365875 0.575503
vt 0.235678 0.568804
vt 0.307409 0.681715
vt 0.333043 0.574725
vt 0.334170 0.510153
vt 0.231292 0.598063
vt 0.308873 0.539959
vt 0.350140 0.585995
vt 0.248606 0.538822
vt 0.240505 0.583102
vt 0.270555 0.583166
vt 0.312544 0.585817
vt 0.267700 0.579168
vt 0.313200 0.580949
vt 0.330884 0.603512
vt 0.335475 0.601764
vt 0.514805 0.505739
vt 0.331636 0.625022
vt 0.496163 0.510101
vt 0.336227 0.623275
vt 0.526172 0.501412
vt 0.257212 0.612480
vt 0.330528 0.474684
vt 0.252462 0.611227
vt 0.322487 0.476955
vt 0.337172 0.550578
vt 0.283252 0.515090
vt 0.486612 0.530053
vt 0.547952 0.534304
vt 0.630465 0.650632
vt 0.779857 0.650632
vt 0.630465 0.667260
vt 0.779857 0.667260
vt 0.642040 0.715370
vt 0.644124 0.715370
vt 0.800234 0.296126
vt 0.721895 0.294595
vt 0.981300 0.715370
vt 0.642040 0.680937
vt 0.757902 0.250249
vt 0.644124 0.749803
vt 0.755307 0.344283
vt 0.768334 0.247710
vt 0.981300 0.680937
vt 0.768700 0.342178
vt 0.981300 0.749803
vt 0.796314 0.658889
vt 0.833458 0.687818
vt 0.847213 0.666764
vt 0.855088 0.658889
vt 0.796314 0.643569
vt 0.728746 0.740174
vt 0.796314 0.674210
vt 0.833458 0.740174
vt 0.839006 0.651443
vt 0.846881 0.643569
vt 0.867540 0.682085
vt 0.871477 0.680772
vt 0.582360 0.748078
vt 0.629603 0.744708
vt 0.340063 0.673039
vt 0.596868 0.545887
vt 0.578494 0.553762
vt 0.122641 0.293727
vt 0.161317 0.528901
vt 0.151474 0.526276
vt 0.061722 0.373579
vt 0.068248 0.292032
vt 0.172098 0.466297
vt 0.172098 0.454838
vt 0.245247 0.607389
vt 0.174875 0.626430
vt 0.158470 0.634961
vt 0.218006 0.519232
vt 0.198735 0.510378
vt 0.218006 0.507774
vt 0.291185 0.620307
vt 0.240035 0.655391
vt 0.290884 0.626029
vt 0.237931 0.657307
vt 0.231094 0.750000
vt 0.278331 0.524864
vt 0.288412 0.698033
vt 0.318852 0.650681
vt 0.316084 0.544787
vt 0.625000 0.893906
vt 0.289725 0.695408
vt 0.300042 0.544810
vt 0.250881 0.750000
vt 0.288347 0.515135
vt 0.209246 0.613427
vt 0.329994 0.750301
vt 0.566628 0.555710
vt 0.329624 0.686097
vt 0.340150 0.586065
vt 0.566628 0.740204
vt 0.310623 0.664572
vt 0.566628 0.755272
vt 0.336627 0.527427
vt 0.236510 0.610441
vt 0.367882 0.738072
vt 0.224772 0.623499
vt 0.368248 0.755272
vt 0.365128 0.553223
vt 0.271742 0.750000
vt 0.580824 0.598809
vt 0.630418 0.632545
vt 0.603513 0.630577
vt 0.608763 0.626639
vt 0.500000 0.893906
vt 0.332049 0.532933
vt 0.566628 0.576601
vt 0.566628 0.583819
vt 0.354246 0.572128
vt 0.249514 0.557694
vt 0.365875 0.575503
vt 0.235678 0.568804
vt 0.270555 0.583166
vt 0.312544 0.585817
vt 0.330884 0.603512
vt 0.331636 0.625022
vt 0.514805 0.505739
vt 0.257212 0.612480
vt 0.330528 0.474684
vt 0.337172 0.550578
vt 0.486612 0.530053
vt 0.642040 0.715370
vt 0.644124 0.715370
vt 0.800234 0.296126
vt 0.721895 0.294595
vt 0.981300 0.715370
vt 0.796314 0.658889
vt 0.833458 0.687818
vt 0.847213 0.666764
vt 0.855088 0.658889
vt 0.269504 0.586170
vt 0.330496 0.586170
vt 0.269504 0.647163
vt 0.330496 0.647163
vt 0.269504 0.586170
vt 0.330496 0.586170
vt 0.269504 0.647163
vt 0.330496 0.647163
vt 0.269504 0.586170
vt 0.269504 0.647163
vt 0.630465 0.650632
vt 0.779857 0.650632
vt 0.630465 0.667260
vt 0.779857 0.667260
vt 0.269504 0.586170
vt 0.330496 0.586170
vt 0.269504 0.647163
vt 0.330496 0.647163
s 0
usemtl Material.025
f 13/21/11 23/37/11 19/32/11 18/31/11
f 21/34/12 14/23/12 17/29/12 20/33/12
f 39/74/13 24/38/13 16/27/13 41/79/13 47/91/13 37/70/13
f 50/98/14 22/35/14 15/24/14 49/94/14
f 31/54/15 28/47/15 27/44/15 32/56/15
f 36/65/16 32/57/16 30/53/16 33/61/16
f 20/33/17 19/32/17 23/37/17 51/100/17
f 28/48/18 13/22/18 18/30/18 27/45/18
f 14/23/19 25/40/19 26/43/19 17/29/19
f 34/62/20 31/55/20 32/58/20 36/66/20
f 25/41/21 29/49/21 30/51/21 26/42/21
f 38/72/22 34/63/22 36/67/22 40/76/22
f 29/50/23 35/64/23 33/61/23 30/52/23
f 48/93/24 38/73/24 40/77/24 46/89/24
f 35/64/25 39/74/25 37/70/25 33/61/25
f 49/95/26 15/25/26 44/85/26 43/83/26 53/104/26
f 22/36/27 42/80/27 44/84/27 15/26/27
f 53/102/28 43/81/28 55/109/28 57/113/28
f 54/106/29 58/115/29 56/111/29 45/86/29
f 42/80/30 48/93/30 46/89/30 44/84/30
f 41/79/26 53/103/26 54/107/26 47/91/26
f 16/27/26 49/96/26 53/104/26 41/79/26
f 20/33/31 51/100/31 21/34/31
f 24/39/32 50/99/32 49/97/32 16/28/32
f 26/43/33 18/31/33 19/32/33 20/33/33 17/29/33
f 27/46/34 18/31/34 26/43/34 30/53/34 32/59/34
f 52/101/26 36/68/26 33/60/26
f 46/90/26 40/78/26 37/70/26 47/91/26
f 37/70/35 40/78/35 36/69/35 33/61/35
f 37/71/36 47/92/36 39/75/36
f 54/108/37 53/105/37 57/114/37 58/116/37
f 43/82/38 45/87/38 56/112/38 55/110/38
f 44/85/26 46/90/26 45/88/26 43/83/26
f 59/117/39 61/119/39 62/120/39 60/118/39
f 62/120/40 64/122/40 63/121/40 60/118/40
f 64/122/41 66/126/41 65/124/41 63/121/41
f 59/117/42 67/128/42 68/130/42 61/119/42
f 67/129/43 69/132/43 70/133/43 68/131/43
f 66/127/44 72/135/44 71/134/44 65/123/44
f 73/136/26 74/137/26 76/139/26 75/138/26
f 81/149/45 82/151/45 78/143/45
f 79/145/46 81/150/46 78/144/46 77/140/46
f 82/152/47 80/147/47 77/141/47 78/144/47
f 77/142/28 80/148/28 79/146/28
f 87/161/48 88/163/48 84/155/48
f 85/157/49 87/162/49 84/156/49 83/153/49
f 88/164/50 86/159/50 83/153/50 84/156/50
f 83/154/28 86/160/28 85/158/28
f 13/21/51 92/172/51 93/173/51 23/37/51
f 21/34/52 94/174/52 91/170/52 14/23/52
f 39/74/53 101/194/53 108/210/53 103/199/53 90/168/53 24/38/53
f 50/98/54 109/212/54 89/165/54 22/35/54
f 31/54/55 98/183/55 96/177/55 28/47/55
f 100/189/56 99/188/56 97/182/56 98/184/56
f 94/174/57 51/100/57 23/37/57 93/173/57
f 28/48/58 96/178/58 92/171/58 13/22/58
f 14/23/59 91/170/59 95/176/59 25/40/59
f 34/62/60 100/190/60 98/185/60 31/55/60
f 25/41/61 95/175/61 97/180/61 29/49/61
f 38/72/62 102/196/62 100/191/62 34/63/62
f 29/50/63 97/181/63 99/188/63 35/64/63
f 48/93/64 107/208/64 102/197/64 38/73/64
f 35/64/65 99/188/65 101/194/65 39/74/65
f 109/213/66 111/219/66 104/202/66 105/204/66 89/166/66
f 22/36/67 89/167/67 105/203/67 42/80/67
f 111/217/28 57/113/28 55/109/28 104/200/28
f 112/221/29 106/205/29 56/111/29 58/115/29
f 42/80/68 105/203/68 107/208/68 48/93/68
f 103/199/66 108/210/66 112/222/66 111/218/66
f 90/168/66 103/199/66 111/219/66 109/214/66
f 94/174/69 21/34/69 51/100/69
f 24/39/70 90/169/70 109/215/70 50/99/70
f 95/176/71 91/170/71 94/174/71 93/173/71 92/172/71
f 96/179/72 98/186/72 97/182/72 95/176/72 92/172/72
f 110/216/66 99/187/66 100/192/66
f 107/209/66 108/210/66 101/194/66 102/198/66
f 101/194/73 99/188/73 100/193/73 102/198/73
f 101/195/74 39/75/74 108/211/74
f 112/223/37 58/116/37 57/114/37 111/220/37
f 104/201/38 55/110/38 56/112/38 106/206/38
f 105/204/66 104/202/66 106/207/66 107/209/66
f 113/224/75 114/225/75 62/120/75 61/119/75
f 62/120/76 114/225/76 115/226/76 64/122/76
f 64/122/77 115/226/77 116/227/77 66/126/77
f 113/224/78 61/119/78 68/130/78 117/229/78
f 117/230/79 68/131/79 70/133/79 118/231/79
f 66/127/80 116/228/80 119/232/80 72/135/80
f 81/149/45 121/236/45 82/151/45
f 79/145/81 120/233/81 121/237/81 81/150/81
f 82/152/82 121/237/82 120/234/82 80/147/82
f 120/235/28 79/146/28 80/148/28
f 87/161/83 123/240/83 88/163/83
f 85/157/84 122/238/84 123/241/84 87/162/84
f 88/164/85 123/241/85 122/238/85 86/159/85
f 122/239/28 85/158/28 86/160/28
f 124/242/26 125/243/26 127/245/26 126/244/26
f 128/246/86 129/247/86 131/249/86 130/248/86
f 128/246/87 130/248/87 133/251/87 132/250/87
f 134/252/66 136/254/66 137/255/66 135/253/66
f 138/256/66 140/258/66 141/259/66 139/257/66
f 69/132/88 67/129/88 117/230/88 118/231/88
f 67/129/89 59/117/89 113/224/89 117/230/89
f 60/118/90 114/225/90 113/224/90 59/117/90
f 115/226/91 114/225/91 60/118/91 63/121/91
f 65/124/92 116/227/92 115/226/92 63/121/92
f 71/134/93 119/232/93 116/228/93 65/125/93
o SnubNoseCylinder
v -0.102436 1.059563 0.170478
v -0.102436 1.244119 0.170478
v 0.373746 1.059563 0.170478
v 0.373746 1.244119 0.170478
v -0.102436 0.958458 -0.001154
v -0.102436 1.337242 -0.001154
v 0.373746 0.958458 -0.001154
v 0.373746 1.337242 -0.001154
v -0.102436 1.059563 -0.172786
v -0.102436 1.244119 -0.172786
v 0.373746 1.059563 -0.172786
v 0.373746 1.244119 -0.172786
vn 1.0000 -0.0000 -0.0000
vn -0.0000 -0.0000 1.0000
vn -0.0000 -0.8616 0.5076
vn -0.0000 0.8790 0.4769
vn -1.0000 -0.0000 -0.0000
vn -0.0000 -0.0000 -1.0000
vn -0.0000 -0.8616 -0.5076
vn -0.0000 0.8790 -0.4769
vt 0.662013 0.677796
vt 0.393928 0.025841
vt 0.662013 0.841220
vt 0.508236 0.239077
vt 0.005782 0.790606
vt 0.967003 0.677796
vt 0.152511 0.986400
vt 0.967003 0.841220
vt 0.662013 0.588267
vt 0.132591 0.015107
vt 0.662013 0.923680
vt 0.367198 0.452754
vt 0.107566 0.546828
vt 0.967003 0.588267
vt 0.408713 0.948676
vt 0.967003 0.923680
vt 0.662013 0.677796
vt -0.003503 0.238007
vt 0.662013 0.841220
vt 0.110805 0.451243
vt 0.005782 0.790606
vt 0.967003 0.677796
vt 0.152511 0.986400
vt 0.967003 0.841220
s 0
usemtl Material.026
f 148/272/94 149/274/94 145/266/94 144/264/94
f 144/265/95 145/267/95 143/262/95 142/260/95
f 146/268/96 148/273/96 144/265/96 142/260/96
f 149/275/97 147/270/97 143/262/97 145/267/97
f 142/261/98 143/263/98 147/271/98 146/269/98
f 148/272/94 152/280/94 153/282/94 149/274/94
f 152/281/99 150/276/99 151/278/99 153/283/99
f 146/268/100 150/276/100 152/281/100 148/273/100
f 149/275/101 153/283/101 151/278/101 147/270/101
f 150/277/98 146/269/98 147/271/98 151/279/98
o SnubNoseCylinderFull
v -0.102436 1.059563 -0.284106
v -0.102436 1.244119 -0.284106
v 0.373746 1.059563 -0.284106
v 0.373746 1.244119 -0.284106
v -0.102436 0.958458 -0.455738
v -0.102436 1.337242 -0.455738
v 0.373746 0.958458 -0.455738
v 0.373746 1.337242 -0.455738
v -0.102436 1.059563 -0.627370
v -0.102436 1.244119 -0.627370
v 0.373746 1.059563 -0.627370
v 0.373746 1.244119 -0.627370
vn 1.0000 -0.0000 -0.0000
vn -0.0000 -0.0000 1.0000
vn -0.0000 -0.8616 0.5076
vn -0.0000 0.8790 0.4769
vn -1.0000 -0.0000 -0.0000
vn -0.0000 -0.0000 -1.0000
vn -0.0000 -0.8616 -0.5076
vn -0.0000 0.8790 -0.4769
vt 0.662013 0.677796
vt 0.890898 0.025841
vt 0.662013 0.841220
vt 1.005206 0.239077
vt 0.005782 0.790606
vt 0.967003 0.677796
vt 0.152511 0.986400
vt 0.967003 0.841220
vt 0.662013 0.588267
vt 0.629561 0.015107
vt 0.662013 0.923680
vt 0.864168 0.452754
vt 0.107566 0.546828
vt 0.967003 0.588267
vt 0.408713 0.948676
vt 0.967003 0.923680
vt 0.662013 0.677796
vt 0.493467 0.238007
vt 0.662013 0.841220
vt 0.607775 0.451243
vt 0.005782 0.790606
vt 0.967003 0.677796
vt 0.152511 0.986400
vt 0.967003 0.841220
s 0
usemtl Material.026
f 160/296/102 161/298/102 157/290/102 156/288/102
f 156/289/103 157/291/103 155/286/103 154/284/103
f 158/292/104 160/297/104 156/289/104 154/284/104
f 161/299/105 159/294/105 155/286/105 157/291/105
f 154/285/106 155/287/106 159/295/106 158/293/106
f 160/296/102 164/304/102 165/306/102 161/298/102
f 164/305/107 162/300/107 163/302/107 165/307/107
f 158/292/108 162/300/108 164/305/108 160/297/108
f 161/299/109 165/307/109 163/302/109 159/294/109
f 162/301/106 158/293/106 159/295/106 163/303/106
o SnubNoseTrigger&Hammer
v -0.032881 0.614661 -0.000752
v 0.011468 0.662809 -0.000752
v -0.159710 0.810821 0.001896
v 0.076240 0.922799 -0.000752
v -0.047050 0.719067 -0.000752
v 0.056178 0.746955 -0.000752
v 0.112836 0.518014 -0.000752
v -0.522909 1.111012 0.003839
v -0.326093 1.345334 0.004041
v -0.330257 1.160646 0.003840
v -0.274842 1.334258 0.004041
v -0.401661 1.229170 0.003839
v -0.401661 1.229170 -0.015883
v -0.522909 1.111012 -0.015883
v -0.326093 1.345334 -0.015883
v -0.330257 1.160646 -0.015883
v -0.274842 1.334258 -0.015883
v -0.388611 1.271866 -0.015883
v -0.388611 1.271866 0.003839
v -0.535788 1.310124 0.003840
v -0.535788 1.310124 -0.015883
v -0.468083 1.313362 -0.015883
v -0.468083 1.313362 0.003356
v -0.032881 0.614661 -0.000752
v 0.011468 0.662809 -0.000752
v -0.159710 0.810821 0.001896
v 0.076240 0.922799 -0.000752
v -0.047050 0.719067 -0.000752
v 0.056178 0.746955 -0.000752
v 0.112836 0.518014 -0.000752
vn 0.0104 -0.0063 0.9999
vn -0.0000 -0.0000 1.0000
vn 0.9526 -0.3041 -0.0000
vn -0.0006 -0.0005 1.0000
vn 0.2112 0.9774 -0.0000
vn 0.0019 0.0072 1.0000
vn -0.4628 -0.8864 -0.0000
vn 0.5167 0.8561 -0.0000
vn 0.0478 -0.9989 -0.0000
vn -0.7616 0.6481 -0.0000
vn -0.0000 -0.0000 -1.0000
vn -0.6979 0.7162 -0.0000
vn -0.0104 0.0063 -0.9999
vt 0.421673 0.678537
vt 0.481994 0.678537
vt 0.419589 0.715941
vt 0.479910 0.715941
vt 0.419589 0.699444
vt 0.479910 0.699444
vt 0.481994 0.678537
vt 0.373181 0.713690
vt 0.398604 0.695148
vt 0.537574 0.713690
vt 0.510107 0.693552
vt 0.375000 0.750000
vt 0.373181 0.677421
vt 0.625000 0.750000
vt 0.537574 0.677421
vt 0.509399 0.693389
vt 0.463834 0.713690
vt 0.459102 0.643648
vt 0.464523 0.694168
vt 0.000000 0.000000
vt 0.459102 0.643648
vt 0.464568 0.701081
vt 0.506947 0.668347
vt 0.398480 0.703302
vt 0.510249 0.700160
vt 0.416453 0.632531
vt 0.375000 0.624139
vt 0.472596 0.615212
vt 0.625000 0.624139
vt 0.509525 0.699331
vt 0.414641 0.615953
vt 0.000000 0.000000
vt 0.480167 0.701019
vt 0.444907 0.644005
vt 0.488485 0.713690
vt 0.444907 0.644005
vt 0.480086 0.694034
vt 0.448166 0.692258
vt 0.471299 0.697047
vt 0.000000 0.000000
vt 0.471376 0.705861
vt 0.000000 0.000000
vt 0.484968 0.703289
vt 0.440380 0.672156
vt 0.484825 0.692510
vt 0.421673 0.678537
vt 0.481994 0.678537
vt 0.419589 0.715941
vt 0.479910 0.715941
vt 0.419589 0.699444
vt 0.479910 0.699444
vt 0.481994 0.678537
s 0
usemtl Material.043
f 170/312/110 171/313/110 169/311/110 168/310/110
f 166/308/111 167/309/111 171/313/111 170/312/111
f 167/309/111 166/308/111 172/314/111
f 181/334/112 182/336/112 176/321/112 175/319/112
f 175/320/113 176/322/113 174/317/113 184/342/113 177/324/113 173/315/113
f 182/337/114 180/332/114 174/318/114 176/323/114
f 177/325/115 184/343/115 188/351/115 185/345/115
f 183/340/116 184/344/116 188/352/116 187/350/116
f 178/327/111 183/339/111 187/349/111 186/347/111
f 177/326/117 178/329/117 186/348/117 185/346/117
f 187/350/118 188/352/118 185/346/118 186/348/118
f 184/344/119 174/318/119 180/332/119 183/340/119
f 180/333/120 182/338/120 181/335/120 183/341/120
f 181/335/120 179/330/120 178/328/120 183/341/120
f 179/331/121 173/316/121 177/326/121 178/329/121
f 193/357/122 191/355/122 192/356/122 194/358/122
f 189/353/120 193/357/120 194/358/120 190/354/120
f 190/354/120 195/359/120 189/353/120
o 38SpecialShell
v 0.872449 0.565793 0.051941
v 0.872449 0.828930 0.051941
v 0.829879 0.565793 0.009371
v 0.829879 0.828930 0.009371
v 0.915019 0.565793 0.009371
v 0.915019 0.828930 0.009371
v 0.872449 0.565793 -0.033199
v 0.872449 0.828930 -0.033199
vn 0.7071 -0.0000 0.7071
vn -0.7071 -0.0000 0.7071
vn -0.0000 -1.0000 -0.0000
vn 0.7071 -0.0000 -0.7071
vn -0.7071 -0.0000 -0.7071
vn -0.0000 1.0000 -0.0000
vt 0.721409 0.769745
vt 0.872245 0.896722
vt 0.225979 0.761354
vt 0.081613 0.247799
vt 0.770126 0.719124
vt 0.722189 0.654546
vt 0.226760 0.646155
vt 0.107330 0.203357
vt 0.974364 0.719124
vt 0.720628 0.875814
vt 0.225198 0.876553
vt 0.103143 0.294524
vt 0.872245 0.541525
vt 0.721409 0.769745
vt 0.225979 0.761354
vt 0.131485 0.247799
s 0
usemtl Material.024
f 200/369/123 201/370/123 197/362/123 196/360/123
f 196/360/124 197/362/124 199/366/124 198/365/124
f 196/361/125 198/364/125 202/372/125 200/368/125
f 200/369/126 202/373/126 203/374/126 201/370/126
f 202/373/127 198/365/127 199/366/127 203/374/127
f 199/367/128 197/363/128 201/371/128 203/375/128
