# Blender 3.3.1
# www.blender.org
mtllib OneBarrelShotGun.mtl
o HandGaurd
v -0.298800 0.689847 0.040450
v 0.482719 0.699779 0.042699
v -0.301042 0.618809 -0.000840
v -0.299803 0.727037 -0.000840
v 0.483335 0.663257 -0.000840
v 0.451221 0.699329 0.042699
v 0.447014 0.648594 -0.000840
v 0.350731 0.698016 0.042699
v 0.347976 0.637010 -0.000840
v 0.501711 0.709843 -0.000840
v 0.482316 0.730464 0.019759
v 0.451198 0.730340 0.019589
v 0.350729 0.729938 0.019040
v -0.299863 0.727340 0.015484
v -0.384179 0.675775 0.039173
v -0.382986 0.616694 -0.000840
v -0.386117 0.733765 0.021785
v -0.385297 0.704857 0.041034
v -0.386117 0.733765 0.021785
v -0.385773 0.723159 -0.000840
v -0.677755 0.711552 -0.000840
v -0.677691 0.755330 0.043279
v 1.691198 0.708072 -0.000840
v 1.691262 0.751851 0.043279
v -0.677625 0.800467 -0.000840
v 1.691329 0.796988 -0.000840
v -0.298800 0.689847 -0.042131
v 0.482719 0.699779 -0.044380
v 0.451221 0.699329 -0.044380
v 0.350731 0.698016 -0.044380
v 0.482316 0.730464 -0.021440
v 0.451198 0.730340 -0.021270
v 0.350729 0.729938 -0.020721
v -0.299863 0.727340 -0.017165
v -0.384179 0.675775 -0.040853
v -0.386117 0.733765 -0.023466
v -0.385297 0.704857 -0.042715
v -0.386117 0.733765 -0.023466
v -0.677691 0.755330 -0.044960
v 1.691262 0.751851 -0.044960
vn 0.1562 -0.7009 0.6959
vn 0.9202 -0.1019 0.3779
vn -0.0077 0.5981 0.8014
vn -0.0075 0.5973 0.8020
vn 0.0398 -0.6157 0.7869
vn 0.0095 -0.5407 0.8411
vn -0.0073 0.5965 0.8026
vn 0.0448 -0.5296 0.8470
vn 0.0039 0.5717 0.8204
vn -0.0729 -0.9972 0.0183
vn -0.0044 -0.0640 0.9979
vn -0.1016 -0.5534 -0.8267
vn -0.0408 0.9045 -0.4246
vn 1.0000 -0.0015 -0.0000
vn -0.0010 -0.7098 0.7044
vn 0.0010 0.6990 0.7151
vn -1.0000 0.0015 -0.0000
vn 0.1562 -0.7009 -0.6959
vn 0.9202 -0.1019 -0.3779
vn -0.0077 0.5981 -0.8014
vn -0.0075 0.5973 -0.8020
vn 0.0398 -0.6157 -0.7869
vn 0.0095 -0.5407 -0.8411
vn -0.0073 0.5965 -0.8026
vn 0.0448 -0.5296 -0.8470
vn 0.0039 0.5717 -0.8204
vn -0.0729 -0.9972 -0.0183
vn -0.0044 -0.0641 -0.9979
vn -0.1016 -0.5534 0.8267
vn -0.0408 0.9045 0.4246
vn -0.0010 -0.7098 -0.7044
vn 0.0010 0.6990 -0.7151
vt 0.440155 0.567296
vt 0.451548 0.559251
vt 0.434600 0.556893
vt 0.478531 0.562701
vt 0.567155 0.567256
vt 0.560129 0.559586
vt 0.439078 0.550898
vt 0.450471 0.542853
vt 0.438906 0.580165
vt 0.000000 0.000000
vt 0.563487 0.559143
vt 0.564648 0.563418
vt 0.561855 0.566858
vt 0.555852 0.560860
vt 0.554210 0.554710
vt 0.539562 0.567364
vt 0.527097 0.559107
vt 0.536417 0.553749
vt 0.566388 0.570003
vt 0.562424 0.574510
vt 0.562591 0.576460
vt 0.556668 0.576802
vt 0.528203 0.576590
vt 0.439531 0.573731
vt 0.477598 0.574477
vt 0.436946 0.555770
vt 0.437006 0.552694
vt 0.435953 0.542270
vt 0.000000 0.000000
vt 0.424420 0.567720
vt 0.435910 0.565174
vt 0.436412 0.559567
vt 0.425498 0.574647
vt 0.437182 0.573424
vt 0.000000 0.000000
vt 0.587691 0.575700
vt 0.933309 0.092954
vt 0.587691 0.585774
vt 0.587691 0.580675
vt 0.954682 0.135165
vt 0.930517 0.098801
vt 0.808266 0.575700
vt 0.907252 0.135871
vt 0.808266 0.585774
vt 0.808266 0.580675
vt 0.587691 0.587410
vt 0.929191 0.177675
vt 0.929719 0.176319
vt 0.808267 0.587410
vt 0.440155 0.567296
vt 0.451548 0.559251
vt 0.434600 0.556893
vt 0.478531 0.562701
vt 0.567155 0.567256
vt 0.560129 0.559586
vt 0.561855 0.566858
vt 0.555852 0.560860
vt 0.539562 0.567364
vt 0.527097 0.559107
vt 0.562424 0.574510
vt 0.562591 0.576460
vt 0.556668 0.576802
vt 0.528203 0.576590
vt 0.439531 0.573731
vt 0.477598 0.574477
vt 0.436946 0.555770
vt 0.437006 0.552694
vt 0.000000 0.000000
vt 0.424420 0.567720
vt 0.435910 0.565174
vt 0.436412 0.559567
vt 0.425498 0.574647
vt 0.437182 0.573424
vt 0.587691 0.585774
vt 0.587691 0.580675
vt 0.954682 0.135165
vt 0.907252 0.135871
vt 0.808266 0.585774
vt 0.808266 0.580675
s 1
usemtl Material.117
f 7/15/1 5/11/1 2/5/1 6/13/1
f 2/6/2 5/12/2 10/19/2 11/20/2
f 2/6/3 11/21/3 12/22/4 6/14/4
f 9/18/5 7/15/5 6/13/5 8/16/5
f 3/7/6 9/18/6 8/16/6 1/1/6
f 6/14/4 12/22/4 13/23/7 8/17/7
f 3/8/8 1/2/8 15/26/8 16/28/8
f 8/17/9 13/23/9 14/24/9 19/33/9 18/30/9 1/3/9
f 14/24/10 19/33/10 4/9/10
f 18/31/11 15/27/11 1/4/11
f 18/32/12 19/34/12 14/25/12 1/4/12
f 20/35/13 17/29/13 4/10/13
f 23/41/14 26/48/14 24/43/14
f 23/42/15 24/44/15 22/38/15 21/36/15
f 26/49/16 25/46/16 22/39/16 24/45/16
f 21/37/17 22/40/17 25/47/17
f 7/15/18 29/56/18 28/54/18 5/11/18
f 28/55/19 31/60/19 10/19/19 5/12/19
f 28/55/20 29/57/21 32/62/21 31/61/20
f 9/18/22 30/58/22 29/56/22 7/15/22
f 3/7/23 27/50/23 30/58/23 9/18/23
f 29/57/21 30/59/24 33/63/24 32/62/21
f 3/8/25 16/28/25 35/66/25 27/51/25
f 30/59/26 27/52/26 37/69/26 38/72/26 34/64/26 33/63/26
f 34/64/27 4/9/27 38/72/27
f 37/70/28 27/53/28 35/67/28
f 37/71/29 27/53/29 34/65/29 38/73/29
f 20/35/30 4/10/30 36/68/30
f 23/41/14 40/77/14 26/48/14
f 23/42/31 21/36/31 39/74/31 40/78/31
f 26/49/32 40/79/32 39/75/32 25/46/32
f 21/37/17 25/47/17 39/76/17
o Lever
v -0.897888 0.683409 0.015622
v -0.768450 0.770091 0.001468
v -0.902590 0.680485 0.001468
v -0.900466 0.713109 0.001468
v -0.867001 0.717417 0.001468
v -0.897888 0.683409 -0.012685
vn -0.9979 0.0650 -0.0000
vn -0.2369 0.5488 0.8017
vn -0.2369 0.5488 -0.8017
vt 0.405900 0.549614
vt 0.596996 0.578656
vt 0.648913 0.583928
vt 0.392953 0.546486
vt 0.393778 0.572062
vt 0.600675 0.590849
vt 0.611299 0.584671
vt 0.384753 0.552038
vt 0.596996 0.578656
s 1
usemtl Material.117
f 43/83/33 41/80/33 44/84/33 46/87/33
f 45/86/34 44/85/34 41/81/34 42/82/34
f 45/86/35 42/82/35 46/88/35 44/85/35
o ShellLowPolyGreen.004
v -0.551621 0.383974 0.024033
v -0.551621 0.564289 0.024033
v -0.575653 0.383974 0.000001
v -0.575653 0.564289 0.000001
v -0.527589 0.383974 0.000001
v -0.527589 0.564289 0.000001
v -0.551621 0.435038 0.024033
v -0.527589 0.435038 0.000001
v -0.575653 0.435038 0.000001
v -0.551621 0.383974 -0.024031
v -0.551621 0.564289 -0.024031
v -0.551621 0.435038 -0.024031
vn 0.7071 -0.0000 0.7071
vn -0.0000 -1.0000 -0.0000
vn -0.0000 1.0000 -0.0000
vn -0.7071 -0.0000 0.7071
vn 0.7071 -0.0000 -0.7071
vn -0.7071 -0.0000 -0.7071
vt 0.821587 0.484619
vt 0.183923 0.104482
vt 0.002034 0.104482
vt 0.625000 0.750000
vt 0.758309 0.818041
vt 0.525350 0.311899
vt 0.013595 0.105289
vt 0.875000 0.625000
vt 0.529300 0.818041
vt 0.984330 0.177612
vt 0.172362 0.103675
vt 0.987318 0.818041
vt 0.625000 0.625000
vt 0.758309 0.515532
vt 0.185638 0.466411
vt 0.003749 0.466411
vt 0.987318 0.515532
vt 0.174077 0.465604
vt 0.529300 0.515532
vt 0.015310 0.467218
vt 0.821587 0.484619
vt 0.183923 0.104482
vt 0.002034 0.104482
vt 0.625000 0.750000
vt 0.758309 0.818041
vt 0.758309 0.515532
vt 0.185638 0.466411
vt 0.003749 0.466411
s 1
usemtl Material.129
f 54/105/36 52/100/36 48/93/36 53/102/36
f 49/94/37 51/98/37 47/89/37
f 52/101/38 50/96/38 48/92/38
f 53/102/39 48/93/39 50/97/39 55/107/39
f 47/90/39 53/103/39 55/108/39 49/95/39
f 51/99/36 54/106/36 53/104/36 47/91/36
f 54/105/40 58/114/40 57/113/40 52/100/40
f 49/94/37 56/109/37 51/98/37
f 52/101/38 57/112/38 50/96/38
f 58/114/41 55/107/41 50/97/41 57/113/41
f 56/110/41 49/95/41 55/108/41 58/115/41
f 51/99/40 56/111/40 58/116/40 54/106/40
o ShellLowPolyRed.004
v -0.491991 0.564358 -0.024249
v -0.491991 0.383791 -0.024249
v -0.467740 0.564358 0.000001
v -0.467740 0.383791 0.000001
v -0.516241 0.564358 0.000001
v -0.516241 0.383791 0.000001
v -0.491991 0.434834 -0.024249
v -0.516241 0.434834 0.000001
v -0.467740 0.434834 0.000001
v -0.491991 0.564358 0.024252
v -0.491991 0.383791 0.024252
v -0.491991 0.434834 0.024252
vn -0.7071 -0.0000 -0.7071
vn -0.0000 1.0000 -0.0000
vn -0.0000 -1.0000 -0.0000
vn 0.7071 -0.0000 -0.7071
vn -0.7071 -0.0000 0.7071
vn 0.7071 -0.0000 0.7071
vt 0.238621 1.001621
vt 0.248625 0.890355
vt 0.018398 0.466638
vt 0.761304 0.001869
vt 0.020464 0.121861
vt 0.495392 0.936879
vt 0.495386 0.890355
vt 0.994736 0.241086
vt 0.231272 0.121861
vt 0.008178 0.941105
vt 0.001864 0.890355
vt 0.229197 0.468648
vt 0.519943 0.238291
vt 0.021755 0.114614
vt 0.020464 0.473901
vt 0.248625 0.511575
vt 0.232554 0.116624
vt 0.001864 0.511575
vt 0.231272 0.473901
vt 0.495386 0.511575
vt 0.238621 1.001621
vt 0.248625 0.890355
vt 0.018398 0.466638
vt 0.761304 0.001869
vt 0.020464 0.121861
vt 0.021755 0.114614
vt 0.020464 0.473901
vt 0.248625 0.511575
s 1
usemtl Material.137
f 66/133/42 65/130/42 60/119/42 64/128/42
f 61/122/43 59/117/43 63/126/43
f 64/129/44 60/120/44 62/124/44
f 65/131/45 67/135/45 62/125/45 60/121/45
f 59/118/45 61/123/45 67/136/45 65/132/45
f 63/127/42 59/118/42 65/132/42 66/134/42
f 66/133/46 64/128/46 69/139/46 70/142/46
f 61/122/43 63/126/43 68/137/43
f 64/129/44 62/124/44 69/140/44
f 70/143/47 69/141/47 62/125/47 67/135/47
f 68/138/47 70/144/47 67/136/47 61/123/47
f 63/127/46 66/134/46 70/144/46 68/138/46
o Shotgun.001
v -0.350013 0.690032 0.040821
v -2.192529 0.274734 0.081977
v -1.392409 0.293327 -0.000470
v -1.331741 0.477647 0.074098
v -1.266528 0.419431 0.061099
v -0.819433 0.674008 0.045190
v -0.726374 0.756914 0.040975
v -0.672397 0.627972 0.035236
v -0.678715 0.755032 0.043371
v -1.275721 0.271296 -0.000470
v -0.935837 0.538962 -0.000470
v -1.104218 0.440713 -0.000548
v -0.678375 0.800238 -0.000470
v -2.190713 0.046002 -0.000548
v -2.198040 0.503467 -0.000470
v -1.409341 0.365882 -0.000470
v -1.337278 0.620677 -0.000470
v -1.248212 0.542020 -0.000470
v -0.949880 0.649256 -0.000470
v -0.721318 0.801155 -0.000470
v -0.809195 0.582663 -0.000470
v -0.679452 0.609221 -0.000548
v -0.837500 0.499551 0.005029
v -0.850055 0.568646 -0.000470
v -0.844402 0.493243 -0.000470
v -0.759321 0.463175 0.005168
v -0.756421 0.452901 -0.000470
v -0.680857 0.485908 0.005168
v -0.675757 0.477833 -0.000470
v -0.655348 0.541151 0.004943
v -0.647158 0.548232 -0.000470
v -0.717275 0.601481 -0.000170
v -0.832328 0.553786 0.006139
v -0.685154 0.598698 0.003826
v -0.384604 0.675836 0.039543
v -0.383324 0.616757 -0.000470
v -0.385771 0.705074 -0.000470
v -0.385765 0.704916 0.041405
v -0.385770 0.705074 -0.000470
v -0.678375 0.800238 -0.000470
v -0.678629 0.711627 -0.000470
v -0.385768 0.734254 0.021942
v -0.350013 0.690032 -0.041761
v -2.192529 0.274734 -0.082917
v -1.331741 0.477647 -0.075037
v -1.266528 0.419431 -0.062039
v -0.819433 0.674008 -0.046130
v -0.726374 0.756914 -0.041915
v -0.672397 0.627972 -0.036176
v -0.678715 0.755032 -0.044311
v -1.104218 0.440713 -0.000392
v -2.190713 0.046002 -0.000392
v -0.679452 0.609221 -0.000392
v -0.837500 0.499551 -0.005969
v -0.759321 0.463175 -0.006108
v -0.680857 0.485908 -0.006108
v -0.655348 0.541151 -0.005883
v -0.717275 0.601481 -0.000770
v -0.832328 0.553786 -0.007078
v -0.685154 0.598698 -0.004765
v -0.384604 0.675836 -0.040483
v -0.385765 0.704916 -0.042345
v -0.385768 0.734254 -0.022881
vn -0.0677 0.3865 0.9198
vn 0.1446 -0.4409 0.8859
vn 0.4213 0.3975 0.8151
vn 0.0310 -0.0315 0.9990
vn -0.3688 0.3019 0.8791
vn -0.3632 0.3053 0.8803
vn -0.0044 -0.0641 0.9979
vn 0.3717 -0.3759 0.8489
vn -0.9996 -0.0160 0.0224
vn 0.0609 -0.6987 0.7128
vn -0.2140 -0.4350 0.8746
vn -0.0127 -0.5949 0.8037
vn -0.6095 0.1653 0.7754
vn -0.4596 0.5245 0.7167
vn -0.1662 0.4623 0.8710
vn 0.0022 0.6900 0.7238
vn 0.4600 -0.3858 0.7997
vn 0.1476 0.7848 0.6020
vn -0.3199 0.0900 0.9432
vn -0.3211 0.0949 0.9423
vn 0.7211 0.6381 0.2699
vn -0.2402 -0.4876 0.8393
vn -0.8020 -0.4378 0.4064
vn -0.6148 0.1355 0.7769
vn -0.2181 -0.4877 0.8453
vn 0.1186 -0.4674 0.8761
vn 0.4547 0.1846 0.8713
vn -0.5181 -0.1476 0.8425
vn 0.1428 -0.4510 0.8810
vn 0.5882 -0.2714 0.7618
vn 0.4630 0.3873 0.7973
vn 0.8421 0.3313 0.4256
vn 0.5928 -0.2467 0.7666
vn 0.2869 0.2329 0.9292
vn 0.2791 0.2517 0.9267
vn 0.3089 -0.5440 0.7801
vn 0.7185 0.1482 0.6795
vn 0.4277 -0.6435 -0.6348
vn -0.3672 -0.0857 0.9262
vn -0.0716 -0.3790 0.9226
vn -0.4070 0.5703 0.7135
vn 0.3699 -0.4563 -0.8093
vn 0.0710 0.9975 0.0037
vn 0.0159 0.7106 -0.7035
vn 0.9997 0.0245 -0.0000
vn 0.9997 0.0245 -0.0053
vn -0.0997 -0.5501 -0.8291
vn -0.0148 0.6091 -0.7930
vn -1.0000 0.0029 -0.0048
vn -1.0000 0.0029 -0.0000
vn -0.0677 0.3865 -0.9198
vn 0.1446 -0.4409 -0.8859
vn 0.4213 0.3975 -0.8151
vn 0.0310 -0.0315 -0.9990
vn 0.4046 0.2801 -0.8705
vn -0.3688 0.3019 -0.8791
vn -0.0044 -0.0641 -0.9979
vn 0.3717 -0.3759 -0.8489
vn -0.9996 -0.0160 -0.0224
vn 0.0609 -0.6987 -0.7128
vn -0.2140 -0.4350 -0.8746
vn -0.0127 -0.5949 -0.8037
vn -0.6095 0.1653 -0.7754
vn -0.1662 0.4623 -0.8710
vn -0.1814 0.7282 -0.6610
vn 0.0022 0.6900 -0.7238
vn 0.4600 -0.3859 -0.7997
vn 0.7234 0.6350 -0.2710
vn -0.3210 0.0949 -0.9423
vn -0.3201 0.0843 -0.9436
vn 0.1476 0.7848 -0.6020
vn -0.2361 -0.4849 -0.8421
vn -0.2136 -0.4929 -0.8435
vn -0.6148 0.1355 -0.7769
vn -0.8020 -0.4377 -0.4064
vn 0.1227 -0.4611 -0.8788
vn 0.1505 -0.4506 -0.8799
vn -0.5180 -0.1476 -0.8425
vn 0.4365 0.1929 -0.8788
vn 0.5860 -0.2657 -0.7655
vn 0.5987 -0.2451 -0.7626
vn 0.8418 0.3316 -0.4260
vn 0.4631 0.3873 -0.7972
vn 0.2808 0.2390 -0.9295
vn 0.2791 0.2517 -0.9267
vn 0.3089 -0.5440 -0.7801
vn 0.7185 0.1482 -0.6795
vn 0.4277 -0.6435 0.6348
vn -0.3672 -0.0857 -0.9262
vn -0.0716 -0.3790 -0.9226
vn -0.4070 0.5703 -0.7135
vn 0.3699 -0.4563 0.8093
vn 0.0710 0.9975 -0.0037
vn 0.0159 0.7106 0.7035
vn 0.9997 0.0245 0.0053
vn -0.0997 -0.5501 0.8291
vn -0.0148 0.6090 0.7930
vn -1.0000 0.0029 0.0048
vn 0.4469 0.8946 0.0020
vn 0.7718 -0.6358 0.0070
vn 0.7718 -0.6358 -0.0070
vn 0.9939 -0.1102 0.0101
vn 0.9940 -0.1083 -0.0158
vn 0.9959 -0.0892 -0.0143
vn 0.9959 -0.0892 0.0143
vn 0.4406 0.8976 0.0132
vn 0.4354 0.9000 -0.0190
vn 0.4073 0.9132 -0.0133
vn 0.4125 0.9108 0.0153
vn -0.2567 0.9664 0.0094
vn -0.2597 0.9655 -0.0169
vn -0.2964 0.9549 -0.0151
vn -0.2909 0.9565 0.0208
vn -0.9006 0.4345 0.0152
vn -0.9041 0.4270 -0.0167
vn -0.9147 0.4037 -0.0193
vn -0.9115 0.4106 0.0224
vn -0.8856 -0.4643 0.0081
vn -0.8856 -0.4643 -0.0081
vn -0.8802 -0.4746 -0.0087
vn -0.8808 -0.4732 0.0170
vn -0.0782 -0.9969 -0.0048
vn -0.0997 -0.9950 -0.0042
vn -0.0782 -0.9969 0.0048
vt 0.440155 0.567296
vt 0.060346 0.463014
vt 0.254927 0.504816
vt 0.215448 0.455724
vt 0.223248 0.485771
vt 0.237216 0.482027
vt 0.242283 0.474041
vt 0.236161 0.480799
vt 0.249249 0.484485
vt 0.243338 0.479570
vt 0.346231 0.570896
vt 0.332002 0.564510
vt 0.341055 0.539766
vt 0.335326 0.558318
vt 0.334878 0.571613
vt 0.327772 0.547063
vt 0.354270 0.553293
vt 0.370361 0.544972
vt 0.334745 0.571420
vt 0.349988 0.550275
vt 0.376323 0.552078
vt 0.364216 0.556660
vt 0.346344 0.574876
vt 0.374934 0.577993
vt 0.342218 0.546806
vt 0.378250 0.577735
vt 0.321714 0.547747
vt 0.386861 0.565897
vt 0.363439 0.563326
vt 0.607743 0.578349
vt 0.235421 0.448218
vt 0.306431 0.526098
vt 0.268425 0.500126
vt 0.342549 0.570435
vt 0.607759 0.581746
vt 0.069988 0.403134
vt 0.295550 0.537205
vt 0.067102 0.504730
vt 0.237385 0.464502
vt 0.212967 0.471584
vt 0.216344 0.469741
vt 0.212967 0.472812
vt 0.219381 0.535073
vt 0.207560 0.526166
vt 0.238673 0.511541
vt 0.238039 0.508162
vt 0.296189 0.543773
vt 0.336538 0.544721
vt 0.307093 0.554609
vt 0.312468 0.541625
vt 0.308556 0.548417
vt 0.331622 0.560075
vt 0.354756 0.578412
vt 0.372442 0.563899
vt 0.346985 0.546590
vt 0.332756 0.540205
vt 0.338592 0.568163
vt 0.375612 0.548339
vt 0.361250 0.553609
vt 0.371395 0.551761
vt 0.371395 0.568163
vt 0.338592 0.551761
vt 0.371395 0.551761
vt 0.371395 0.568163
vt 0.371395 0.551761
vt 0.371395 0.568163
vt 0.371395 0.551761
vt 0.371395 0.568163
vt 0.371395 0.551761
vt 0.371395 0.568163
vt 0.354993 0.568163
vt 0.371395 0.568163
vt 0.425553 0.563815
vt 0.424560 0.550315
vt 0.324317 0.571441
vt 0.425498 0.574647
vt 0.405110 0.556381
vt 0.424420 0.567720
vt 0.422083 0.557701
vt 0.366798 0.561518
vt 0.615622 0.579642
vt 0.424921 0.570940
vt 0.422081 0.572729
vt 0.405029 0.572078
vt 0.440155 0.567296
vt 0.060346 0.463014
vt 0.254927 0.504816
vt 0.223248 0.485771
vt 0.237216 0.482027
vt 0.242283 0.474041
vt 0.236161 0.480799
vt 0.249249 0.484485
vt 0.243338 0.479570
vt 0.346231 0.570896
vt 0.332002 0.564510
vt 0.341055 0.539766
vt 0.335326 0.558318
vt 0.334878 0.571613
vt 0.327772 0.547063
vt 0.354270 0.553293
vt 0.370361 0.544972
vt 0.334745 0.571420
vt 0.349988 0.550275
vt 0.376323 0.552078
vt 0.364216 0.556660
vt 0.346344 0.574876
vt 0.374934 0.577993
vt 0.342218 0.546806
vt 0.378250 0.577735
vt 0.321714 0.547747
vt 0.386861 0.565897
vt 0.363439 0.563326
vt 0.607743 0.578349
vt 0.268425 0.500126
vt 0.069988 0.403134
vt 0.295550 0.537205
vt 0.375612 0.548339
vt 0.361250 0.553609
vt 0.371395 0.551761
vt 0.371395 0.568163
vt 0.371395 0.568163
vt 0.371395 0.568163
vt 0.371395 0.568163
vt 0.371395 0.568163
vt 0.354993 0.568163
vt 0.371395 0.568163
vt 0.425553 0.563815
vt 0.424420 0.567720
vt 0.422083 0.557701
vt 0.424921 0.570940
vt 0.422081 0.572729
vt 0.405029 0.572078
s 1
usemtl Material.117
f 87/187/48 85/182/48 72/146/48 74/149/48
f 84/180/49 86/184/49 74/149/49 72/146/49
f 88/189/50 87/188/50 74/149/50 75/150/50
f 78/164/51 79/167/52 77/159/53 76/156/51
f 71/145/54 108/222/54 79/168/54 78/165/54 105/217/54
f 80/175/55 82/177/55 75/152/55
f 72/147/56 85/183/56 84/181/56
f 106/218/57 105/217/57 78/165/57 92/202/57
f 75/151/58 74/149/58 86/185/58
f 92/203/59 78/166/59 76/155/59 91/199/59
f 75/152/60 89/191/61 88/190/62
f 83/178/63 90/196/63 77/160/53 79/169/52
f 94/206/64 95/207/65 93/205/66 103/215/67 91/201/68
f 93/205/69 95/207/70 97/209/71 96/208/72
f 96/208/73 97/209/74 99/211/75 98/210/76
f 98/210/77 99/211/78 101/213/79 100/212/80
f 100/212/81 101/213/82 92/204/82 102/214/82 104/216/82
f 82/177/83 81/176/83 91/200/83 76/156/84 75/152/60
f 77/161/85 89/192/85 90/197/85
f 76/156/84 89/193/61 75/152/60
f 75/153/86 86/186/86 73/148/86
f 80/175/87 75/154/87 73/148/87
f 76/157/88 77/162/88 90/198/88 89/194/88
f 89/195/89 77/163/89 76/158/89
f 107/220/90 79/170/90 108/222/90 112/226/90
f 107/219/91 111/224/91 79/171/91
f 106/218/92 107/220/92 112/226/93 108/222/93 105/217/93
f 112/227/94 108/223/94 79/172/94
f 79/173/95 112/228/95 107/221/95
f 79/174/96 83/179/97 111/225/97
f 87/187/98 115/232/98 114/230/98 85/182/98
f 122/259/99 114/230/99 115/232/99 86/184/99
f 88/189/100 116/233/100 115/232/100 87/188/100
f 119/247/101 117/239/101 118/242/102 120/250/103
f 113/229/104 131/271/104 119/248/104 120/251/104 132/272/104
f 80/175/105 116/235/105 121/258/105
f 114/231/106 122/260/106 85/183/106
f 106/218/107 123/261/107 119/248/107 131/271/107
f 116/234/108 86/185/108 115/232/108
f 123/262/109 91/199/109 117/238/109 119/249/109
f 116/235/110 88/190/111 89/191/112
f 83/178/113 120/252/103 118/243/102 90/196/113
f 94/206/114 91/201/115 129/269/116 124/264/117 95/207/118
f 124/264/119 125/265/120 97/209/121 95/207/122
f 125/265/123 126/266/124 99/211/125 97/209/126
f 126/266/127 127/267/128 101/213/129 99/211/130
f 127/267/131 130/270/132 128/268/132 123/263/132 101/213/132
f 121/258/133 116/235/110 117/239/134 91/200/133 81/176/133
f 118/244/135 90/197/135 89/192/135
f 117/239/134 116/235/110 89/193/112
f 116/236/136 73/148/136 86/186/136
f 80/175/137 73/148/137 116/237/137
f 117/240/138 89/194/138 90/198/138 118/245/138
f 89/195/139 117/241/139 118/246/139
f 107/220/140 133/274/140 132/272/140 120/253/140
f 107/219/141 120/254/141 111/224/141
f 106/218/92 131/271/142 132/272/142 133/274/142 107/220/92
f 133/275/143 120/255/143 132/273/143
f 120/256/144 107/221/144 133/276/144
f 120/257/145 111/225/97 83/179/97
f 91/201/146 103/215/147 129/269/148
f 93/205/149 124/264/150 129/269/151 103/215/152
f 96/208/153 125/265/154 124/264/155 93/205/156
f 98/210/157 126/266/158 125/265/159 96/208/160
f 100/212/161 127/267/162 126/266/163 98/210/164
f 104/216/165 130/270/166 127/267/167 100/212/168
f 104/216/169 102/214/170 130/270/171
o Trigger.002
v -0.774406 0.589943 -0.000470
v -0.766272 0.477562 -0.000470
v -0.747796 0.595670 -0.000470
v -0.780233 0.488397 -0.000470
v -0.792648 0.533687 -0.000470
v -0.764143 0.585712 -0.000470
v -0.787048 0.483330 -0.000470
v -0.783416 0.537447 -0.000470
v -0.774406 0.589943 -0.000470
v -0.766272 0.477562 -0.000470
v -0.747796 0.595670 -0.000470
v -0.780233 0.488397 -0.000470
v -0.792648 0.533687 -0.000470
v -0.764143 0.585712 -0.000470
v -0.787048 0.483330 -0.000470
v -0.783416 0.537447 -0.000470
vn -0.0000 -0.0000 1.0000
vn -0.0000 -0.0000 -1.0000
vt 0.329930 0.541969
vt 0.340954 0.550595
vt 0.329930 0.573975
vt 0.369612 0.553172
vt 0.345933 0.541969
vt 0.348651 0.543122
vt 0.345933 0.573975
vt 0.348651 0.580551
vt 0.340310 0.566127
vt 0.358008 0.543122
vt 0.368968 0.568704
vt 0.358008 0.580551
vt 0.329930 0.541969
vt 0.340954 0.550595
vt 0.329930 0.573975
vt 0.369612 0.553172
vt 0.345933 0.541969
vt 0.348651 0.543122
vt 0.345933 0.573975
vt 0.348651 0.580551
vt 0.340310 0.566127
vt 0.358008 0.543122
vt 0.368968 0.568704
vt 0.358008 0.580551
s 1
usemtl Material.117
f 140/285/172 135/278/172 137/280/172 141/287/172
f 134/277/172 138/281/172 139/283/172 136/279/172
f 138/282/172 140/286/172 141/288/172 139/284/172
f 148/297/173 149/299/173 145/292/173 143/290/173
f 142/289/173 144/291/173 147/295/173 146/293/173
f 146/294/173 147/296/173 149/300/173 148/298/173
