# Blender 3.3.1
# www.blender.org
mtllib DBSawedOffShotgun.mtl
o Body.002
v -1.239847 0.193275 0.000000
v -1.291768 0.466933 0.000000
v -0.440940 0.464331 0.000000
v -0.442614 0.599845 0.041224
v -0.442614 0.583824 0.000000
v -1.401024 0.187205 0.000000
v -1.391078 0.390131 0.000000
v -1.150537 0.328916 0.000000
v -0.683769 0.616533 0.074041
v -0.892946 0.435840 0.000000
v -0.684043 0.580091 0.037825
v -0.683933 0.591069 0.046134
v -1.265807 0.330104 0.057649
v -0.441778 0.505576 0.041224
v -1.441164 0.284607 0.000000
v -0.952591 0.480674 0.060936
v -0.796419 0.485943 0.040285
v -0.683769 0.653838 0.037342
v -0.683769 0.653383 0.000000
v -0.915532 0.307571 0.010260
v -0.791923 0.321147 0.013703
v -0.976355 0.332891 0.000000
v -0.965817 0.336203 0.010260
v -0.918326 0.296885 0.000000
v -0.781994 0.316307 0.000001
v -1.004438 0.389872 0.000000
v -0.973724 0.410685 0.010260
v -0.745996 0.374120 0.010260
v -0.736067 0.372686 0.000000
v -0.792067 0.448934 0.010260
v -0.770060 0.446895 0.000000
v -0.442614 0.599845 -0.041223
v -0.683769 0.616533 -0.074040
v -0.684043 0.580091 -0.037825
v -0.683933 0.591069 -0.046133
v -1.265807 0.330104 -0.057649
v -0.441778 0.505576 -0.041223
v -0.952591 0.480674 -0.060936
v -0.796419 0.485943 -0.040284
v -0.683769 0.653838 -0.037341
v -0.915532 0.307571 -0.010260
v -0.791923 0.321147 -0.013703
v -0.965817 0.336203 -0.010260
v -0.973724 0.410685 -0.010260
v -0.745996 0.374120 -0.010260
v -0.792067 0.448934 -0.010260
vn 0.2203 -0.4178 0.8814
vn 0.2080 0.4604 0.8630
vn 0.2101 0.4774 0.8532
vn 0.1872 0.4986 0.8464
vn 0.2210 0.4584 0.8608
vn -0.1802 0.3128 0.9326
vn -0.9998 0.0184 -0.0108
vn -0.0650 0.8762 -0.4775
vn 0.0083 -0.0340 0.9994
vn 0.0402 -0.6884 0.7242
vn 0.3737 -0.5343 0.7582
vn 0.2176 -0.6723 0.7076
vn 0.9999 0.0117 0.0020
vn -0.2511 0.6788 0.6900
vn -0.2932 0.9560 -0.0116
vn -0.3774 -0.6324 0.6766
vn 0.0833 -0.7824 0.6172
vn 0.0833 -0.7824 0.6171
vn -0.3918 -0.1073 0.9138
vn 0.5760 -0.4413 0.6881
vn 0.5395 0.2898 0.7905
vn 0.2203 -0.4178 -0.8814
vn 0.0145 -0.3859 -0.9224
vn 0.2080 0.4604 -0.8630
vn 0.2210 0.4584 -0.8608
vn 0.1872 0.4986 -0.8464
vn 0.2101 0.4774 -0.8532
vn -0.3747 0.0235 -0.9269
vn -0.7740 -0.0041 -0.6332
vn -0.6222 0.2411 -0.7448
vn -0.1802 0.3128 -0.9326
vn -0.9998 0.0180 0.0105
vn -0.0650 0.8762 0.4775
vn 0.0083 -0.0340 -0.9994
vn 0.0402 -0.6884 -0.7243
vn 0.3737 -0.5343 -0.7582
vn 0.0145 -0.3859 0.9224
vn -0.1827 -0.2532 0.9500
vn -0.3473 0.4038 0.8464
vn 0.1648 -0.4977 0.8516
vn 0.2176 -0.6723 -0.7076
vn 0.9999 0.0117 -0.0020
vn -0.2511 0.6788 -0.6900
vn -0.2932 0.9560 0.0116
vn -0.3774 -0.6324 -0.6766
vn 0.0833 -0.7824 -0.6172
vn 0.0833 -0.7824 -0.6171
vn -0.3918 -0.1073 -0.9138
vn 0.5760 -0.4413 -0.6881
vn 0.5395 0.2898 -0.7905
vn -0.8515 -0.5244 -0.0000
vn -0.7556 0.6551 -0.0000
vn -0.1092 0.9940 -0.0000
vn 0.9944 0.1056 -0.0000
vn 0.4948 0.8690 -0.0000
vt 0.224131 0.464473
vt 0.229288 0.315632
vt 0.237261 0.334966
vt 0.219367 0.527097
vt 0.283703 0.551928
vt 0.381943 0.538399
vt 0.375000 0.625000
vt 0.381623 0.649772
vt 0.625000 0.750000
vt 0.625000 0.625000
vt 0.196744 0.412363
vt 0.200238 0.349419
vt 0.197714 0.354036
vt 0.195395 0.568408
vt 0.196970 0.585342
vt 0.246353 0.427109
vt 0.735316 0.750000
vt 0.335543 0.653885
vt 0.295574 0.529379
vt 0.680158 0.625000
vt 0.680158 0.750000
vt 0.335512 0.630823
vt 0.231425 0.467277
vt 0.224327 0.428085
vt 0.381783 0.572296
vt 0.500000 0.750000
vt 0.197342 0.469689
vt 0.284177 0.551830
vt 0.314018 0.556161
vt 0.331803 0.664268
vt 0.323030 0.581039
vt 0.324789 0.650992
vt 0.360008 0.554728
vt 0.383627 0.565885
vt 0.348386 0.575537
vt 0.350399 0.578259
vt 0.359474 0.545945
vt 0.385524 0.561907
vt 0.343020 0.622367
vt 0.348889 0.639471
vt 0.392403 0.609420
vt 0.363965 0.559689
vt 0.394300 0.608243
vt 0.365862 0.558511
vt 0.355162 0.621176
vt 0.359367 0.619500
vt 0.381623 0.649772
vt 0.625000 0.750000
vt 0.735316 0.750000
vt 0.335543 0.653885
vt 0.680158 0.625000
vt 0.680158 0.750000
vt 0.335512 0.630823
vt 0.232061 0.362527
vt 0.224327 0.428085
vt 0.381783 0.572296
vt 0.500000 0.750000
vt 0.284177 0.551830
vt 0.314018 0.556161
vt 0.331803 0.664268
vt 0.323030 0.581039
vt 0.360008 0.554728
vt 0.383627 0.565885
vt 0.350399 0.578259
vt 0.348889 0.639471
vt 0.392403 0.609420
vt 0.363965 0.559689
vt 0.355162 0.621176
s 0
usemtl Material.187
f 17/29/1 12/22/1 9/18/1 16/28/1
f 13/24/2 2/4/3 7/14/4 15/27/5
f 16/28/6 9/18/6 2/4/6 13/24/6
f 11/20/7 9/17/7 12/21/7
f 5/10/8 11/20/8 12/21/8 4/9/8
f 14/25/9 4/8/9 12/22/9 17/29/9
f 3/6/10 14/25/10 17/29/10 10/19/10
f 8/16/11 16/28/11 13/24/11 1/2/11
f 10/19/12 17/29/12 16/28/12 8/16/12
f 3/7/13 5/10/13 4/9/13 14/26/13
f 9/18/14 18/30/14 2/4/14
f 18/31/15 19/32/15 2/5/15
f 20/33/16 23/36/16 22/35/16 24/37/16
f 20/33/17 24/37/18 25/38/17 21/34/18
f 23/36/19 27/40/19 26/39/19 22/35/19
f 25/38/20 29/43/20 28/41/20 21/34/20
f 29/44/21 31/46/21 30/45/21 28/42/21
f 39/59/22 38/58/22 33/50/22 35/53/22
f 1/1/23 6/11/23 36/54/23
f 36/55/24 15/27/25 7/15/26 2/4/27
f 6/13/28 15/27/29 36/55/30
f 38/58/31 36/55/31 2/4/31 33/50/31
f 34/51/32 35/52/32 33/49/32
f 5/10/33 32/48/33 35/52/33 34/51/33
f 37/56/34 39/59/34 35/53/34 32/47/34
f 3/6/35 10/19/35 39/59/35 37/56/35
f 8/16/36 1/2/36 36/55/36 38/58/36
f 1/3/37 13/23/37 6/12/37
f 6/13/38 13/24/39 15/27/40
f 10/19/41 8/16/41 38/58/41 39/59/41
f 3/7/42 37/57/42 32/48/42 5/10/42
f 33/50/43 2/4/43 40/60/43
f 40/61/44 2/5/44 19/32/44
f 41/62/45 24/37/45 22/35/45 43/64/45
f 41/62/46 42/63/47 25/38/46 24/37/47
f 43/64/48 22/35/48 26/39/48 44/65/48
f 25/38/49 42/63/49 45/66/49 29/43/49
f 29/44/50 45/67/50 46/68/50 31/46/50
f 30/45/51 46/68/51 45/67/51 28/42/51
f 28/42/52 45/67/52 42/63/52 21/34/52
f 21/34/53 42/63/53 41/62/53 20/33/53
f 27/40/54 23/36/54 43/64/54 44/65/54
f 23/36/55 20/33/55 41/62/55 43/64/55
o HandGaurd&Barrel.001
v -0.440837 0.464000 -0.000010
v -0.442583 0.599804 0.040785
v 0.332573 0.514187 -0.000010
v 0.332573 0.604015 0.061266
v -0.442583 0.599804 -0.000010
v 0.332573 0.616390 -0.000010
v -0.441710 0.505212 0.040785
v 0.332573 0.559101 0.061266
v 0.374382 0.559101 -0.000010
v -0.441710 0.531902 -0.000010
v -0.253122 0.476181 -0.000010
v -0.254444 0.600825 0.061266
v -0.254444 0.600825 -0.000010
v -0.253783 0.538503 0.061266
v -0.683711 0.616515 0.074426
v -0.683711 0.616515 0.074426
v 0.416987 0.616515 0.074426
v -0.683711 0.579041 0.037076
v -0.683711 0.653991 0.037076
v -0.683711 0.579041 0.037076
v -0.683711 0.653991 0.037076
v 0.416987 0.579041 0.037076
v 0.416987 0.653991 0.037076
v -0.683711 0.616515 -0.000010
v -0.683711 0.616515 -0.000010
v 0.416987 0.616515 -0.000010
v -0.683406 0.653851 0.017968
v 0.416467 0.653851 0.017968
v -0.683406 0.634684 0.017968
v 0.416467 0.634684 0.017968
v -0.683406 0.653851 -0.000010
v 0.416467 0.653851 -0.000010
v -0.442583 0.599804 -0.040805
v 0.332573 0.604015 -0.061287
v -0.441710 0.505212 -0.040805
v 0.332573 0.559101 -0.061287
v -0.254444 0.600825 -0.061287
v -0.253783 0.538503 -0.061287
v -0.683711 0.616515 -0.074446
v -0.683711 0.616515 -0.074446
v 0.416987 0.616515 -0.074446
v -0.683711 0.579041 -0.037097
v -0.683711 0.653991 -0.037097
v -0.683711 0.579041 -0.037097
v -0.683711 0.653991 -0.037097
v 0.416987 0.579041 -0.037097
v 0.416987 0.653991 -0.037097
v -0.683406 0.653851 -0.017990
v 0.416467 0.653851 -0.017990
v -0.683406 0.634684 -0.017990
v 0.416467 0.634684 -0.017990
vn 0.8725 0.3569 0.3337
vn -0.1082 -0.0011 0.9941
vn -0.0054 1.0000 -0.0000
vn -0.9999 -0.0107 -0.0035
vn -0.9999 -0.0129 -0.0084
vn 0.0460 -0.7010 0.7117
vn 0.6548 -0.6096 0.4468
vn 0.0376 -0.7519 0.6582
vn -0.0159 0.9948 0.1005
vn -0.0000 -0.0000 1.0000
vn -0.0000 -0.7059 0.7083
vn -0.0000 0.7059 0.7083
vn -0.0000 1.0000 -0.0001
vn -0.0000 -0.0000 -1.0000
vn -0.0000 1.0000 -0.0000
vn -0.0000 -0.7034 -0.7108
vn -0.0000 0.7034 -0.7108
vn -1.0000 -0.0000 -0.0000
vn 1.0000 -0.0000 -0.0000
vn 0.8725 0.3569 -0.3337
vn -0.1082 -0.0011 -0.9941
vn -0.9999 -0.0107 0.0035
vn -0.9999 -0.0129 0.0084
vn 0.0460 -0.7010 -0.7117
vn 0.6548 -0.6096 -0.4468
vn 0.0376 -0.7519 -0.6582
vn -0.0159 0.9948 -0.1005
vn -0.0000 -0.7059 -0.7083
vn -0.0000 0.7059 -0.7083
vn 0.0003 1.0000 -0.0001
vn 0.0003 1.0000 -0.0000
vn -0.0000 -0.7034 0.7108
vn -0.0000 0.7034 0.7108
vn 1.0000 0.0092 -0.0000
vt 0.357809 0.580881
vt 0.406634 0.547673
vt 0.408030 0.626125
vt 0.875000 0.750000
vt 0.411370 0.688962
vt 0.568784 0.600343
vt 0.625000 0.750000
vt 0.569528 0.664854
vt 0.875000 0.625000
vt 0.388449 0.707987
vt 0.569528 0.662409
vt 0.625000 0.625000
vt 0.370840 0.634922
vt 0.406464 0.582164
vt 0.569528 0.627265
vt 0.577663 0.627265
vt 0.367918 0.675453
vt 0.455810 0.565335
vt 0.814322 0.750000
vt 0.455800 0.653650
vt 0.814322 0.625000
vt 0.455433 0.610026
vt 0.643427 0.691205
vt 0.125000 0.750000
vt 0.875000 0.750000
vt 0.125000 0.750000
vt 0.875000 0.750000
vt 0.739229 0.301636
vt 0.872246 0.691205
vt 0.740015 0.311500
vt 0.125000 0.625000
vt 0.760668 0.209117
vt 0.875000 0.625000
vt 0.760668 0.428024
vt 0.643427 0.666041
vt 0.598644 0.662271
vt 0.125000 0.625000
vt 0.643427 0.716370
vt 0.598644 0.716938
vt 0.875000 0.625000
vt 0.872246 0.666041
vt 0.843336 0.658004
vt 0.761679 0.218013
vt 0.872246 0.716370
vt 0.843336 0.712671
vt 0.761679 0.404987
vt 0.598644 0.689605
vt 0.125000 0.750000
vt 0.875000 0.750000
vt 0.125000 0.750000
vt 0.875000 0.750000
vt 0.784470 0.301636
vt 0.843336 0.685338
vt 0.783342 0.311500
vt 0.352500 0.580645
vt 0.395977 0.598572
vt 0.371202 0.587187
vt 0.396297 0.612721
vt 0.367672 0.602516
vt 0.396732 0.584338
vt 0.367843 0.573192
vt 0.408030 0.626125
vt 0.875000 0.750000
vt 0.411370 0.688962
vt 0.625000 0.750000
vt 0.569528 0.664854
vt 0.370840 0.634922
vt 0.406464 0.582164
vt 0.569528 0.627265
vt 0.814322 0.750000
vt 0.455800 0.653650
vt 0.455433 0.610026
vt 0.643427 0.691205
vt 0.125000 0.750000
vt 0.875000 0.750000
vt 0.125000 0.750000
vt 0.875000 0.750000
vt 0.739229 0.301636
vt 0.872246 0.691205
vt 0.740015 0.311500
vt 0.125000 0.625000
vt 0.760668 0.209117
vt 0.875000 0.625000
vt 0.760668 0.428024
vt 0.643427 0.666041
vt 0.598644 0.662271
vt 0.125000 0.625000
vt 0.643427 0.716370
vt 0.598644 0.716938
vt 0.875000 0.625000
vt 0.872246 0.666041
vt 0.843336 0.658004
vt 0.761679 0.218013
vt 0.872246 0.716370
vt 0.843336 0.712671
vt 0.761679 0.404987
vt 0.395977 0.598572
vt 0.371202 0.587187
vt 0.396297 0.612721
vt 0.367672 0.602516
s 0
usemtl Material.188
f 55/84/56 52/79/56 50/76/56 54/83/56
f 60/90/57 58/88/57 48/71/57 53/82/57
f 59/89/58 51/77/58 48/72/58 58/87/58
f 53/81/59 48/73/59 51/78/59 56/85/59
f 47/69/60 53/81/60 56/85/60
f 57/86/61 60/90/61 53/82/61 47/70/61
f 49/74/62 55/84/62 54/83/62
f 49/74/63 54/83/63 60/90/63 57/86/63
f 52/80/64 59/89/64 58/87/64 50/75/64
f 54/83/65 50/76/65 58/88/65 60/90/65
f 66/103/66 68/109/66 63/97/66 61/91/66
f 69/112/67 67/106/67 61/91/67 63/97/67
f 66/105/68 61/92/69 62/94/70 64/99/69
f 61/93/70 67/108/69 65/101/68 62/95/69
f 66/104/71 70/115/71 72/121/71 68/110/71
f 69/113/72 72/121/72 70/115/72 67/107/72
f 66/105/65 64/99/70 71/118/65 70/116/70
f 70/117/65 71/119/70 65/101/65 67/108/70
f 74/125/65 73/124/65 75/126/65 76/127/65
f 73/124/70 74/125/70 78/129/70 77/128/70
f 65/102/73 71/120/73 64/100/73 62/96/73
f 68/111/74 72/122/74 69/114/74 63/98/74
f 55/84/75 82/137/75 80/134/75 52/79/75
f 84/140/76 81/136/76 79/130/76 83/139/76
f 59/89/58 83/138/58 79/131/58 51/77/58
f 81/135/77 56/85/77 51/78/77 79/132/77
f 47/69/78 56/85/78 81/135/78
f 57/86/79 47/70/79 81/136/79 84/140/79
f 49/74/80 82/137/80 55/84/80
f 49/74/81 57/86/81 84/140/81 82/137/81
f 52/80/82 80/133/82 83/138/82 59/89/82
f 82/137/69 84/140/69 83/139/69 80/134/69
f 90/153/83 85/141/83 87/147/83 92/159/83
f 93/162/84 87/147/84 85/141/84 91/156/84
f 90/155/69 88/149/70 86/144/69 85/142/85
f 85/143/69 86/145/68 89/151/69 91/158/86
f 90/154/87 92/160/87 72/121/87 70/115/87
f 93/163/88 91/157/88 70/115/88 72/121/88
f 90/155/70 70/116/65 71/118/70 88/149/65
f 70/117/70 91/158/65 89/151/70 71/119/65
f 95/166/69 97/168/69 96/167/69 94/165/69
f 94/165/70 77/128/70 78/129/70 95/166/70
f 89/152/73 86/146/73 88/150/73 71/120/73
f 92/161/74 87/148/74 93/164/74 72/122/74
f 78/129/89 74/125/89 76/127/89 72/123/89 97/168/89 95/166/89
o ShellLowPolyGreen.006
v -0.544971 0.216269 0.023853
v -0.544971 0.395239 0.023853
v -0.568824 0.216269 0.000000
v -0.568824 0.395239 0.000000
v -0.521118 0.216269 0.000000
v -0.521118 0.395239 0.000000
v -0.544971 0.266953 0.023853
v -0.521118 0.266953 0.000000
v -0.568824 0.266953 0.000000
v -0.544971 0.216269 -0.023853
v -0.544971 0.395239 -0.023853
v -0.544971 0.266953 -0.023853
vn 0.7071 -0.0000 0.7071
vn -0.0000 -1.0000 -0.0000
vn -0.0000 1.0000 -0.0000
vn -0.7071 -0.0000 0.7071
vn 0.7071 -0.0000 -0.7071
vn -0.7071 -0.0000 -0.7071
vt 0.821587 0.484619
vt 0.183923 0.104482
vt 0.002034 0.104482
vt 0.625000 0.750000
vt 0.758309 0.818041
vt 0.525350 0.311899
vt 0.013595 0.105289
vt 0.875000 0.625000
vt 0.529300 0.818041
vt 0.984330 0.177612
vt 0.172362 0.103675
vt 0.987318 0.818041
vt 0.625000 0.625000
vt 0.758309 0.515532
vt 0.185638 0.466411
vt 0.003749 0.466411
vt 0.987318 0.515532
vt 0.174077 0.465604
vt 0.529300 0.515532
vt 0.015310 0.467218
vt 0.821587 0.484619
vt 0.183923 0.104482
vt 0.002034 0.104482
vt 0.625000 0.750000
vt 0.758309 0.818041
vt 0.758309 0.515532
vt 0.185638 0.466411
vt 0.003749 0.466411
s 0
usemtl Material.189
f 105/185/90 103/180/90 99/173/90 104/182/90
f 100/174/91 102/178/91 98/169/91
f 103/181/92 101/176/92 99/172/92
f 104/182/93 99/173/93 101/177/93 106/187/93
f 98/170/93 104/183/93 106/188/93 100/175/93
f 102/179/90 105/186/90 104/184/90 98/171/90
f 105/185/94 109/194/94 108/193/94 103/180/94
f 100/174/91 107/189/91 102/178/91
f 103/181/92 108/192/92 101/176/92
f 109/194/95 106/187/95 101/177/95 108/193/95
f 107/190/95 100/175/95 106/188/95 109/195/95
f 102/179/94 107/191/94 109/196/94 105/186/94
o ShellLowPolyRed.006
v -0.485786 0.395308 -0.024068
v -0.485786 0.216089 -0.024068
v -0.461717 0.395308 0.000000
v -0.461717 0.216089 0.000000
v -0.509855 0.395308 0.000000
v -0.509855 0.216089 0.000000
v -0.485786 0.266750 -0.024068
v -0.509855 0.266750 0.000000
v -0.461717 0.266750 0.000000
v -0.485786 0.395308 0.024071
v -0.485786 0.216089 0.024071
v -0.485786 0.266750 0.024071
vn -0.7071 -0.0000 -0.7071
vn -0.0000 1.0000 -0.0000
vn -0.0000 -1.0000 -0.0000
vn 0.7071 -0.0000 -0.7071
vn -0.7071 -0.0000 0.7071
vn 0.7071 -0.0000 0.7071
vt 0.238621 1.001621
vt 0.248625 0.890355
vt 0.018398 0.466638
vt 0.761304 0.001869
vt 0.020464 0.121861
vt 0.495392 0.936879
vt 0.495386 0.890355
vt 0.994736 0.241086
vt 0.231272 0.121861
vt 0.008178 0.941105
vt 0.001864 0.890355
vt 0.229197 0.468648
vt 0.519943 0.238291
vt 0.021755 0.114614
vt 0.020464 0.473901
vt 0.248625 0.511575
vt 0.232554 0.116624
vt 0.001864 0.511575
vt 0.231272 0.473901
vt 0.495386 0.511575
vt 0.238621 1.001621
vt 0.248625 0.890355
vt 0.018398 0.466638
vt 0.761304 0.001869
vt 0.020464 0.121861
vt 0.021755 0.114614
vt 0.020464 0.473901
vt 0.248625 0.511575
s 0
usemtl Material.190
f 117/213/96 116/210/96 111/199/96 115/208/96
f 112/202/97 110/197/97 114/206/97
f 115/209/98 111/200/98 113/204/98
f 116/211/99 118/215/99 113/205/99 111/201/99
f 110/198/99 112/203/99 118/216/99 116/212/99
f 114/207/96 110/198/96 116/212/96 117/214/96
f 117/213/100 115/208/100 120/219/100 121/222/100
f 112/202/97 114/206/97 119/217/97
f 115/209/98 113/204/98 120/220/98
f 121/223/101 120/221/101 113/205/101 118/215/101
f 119/218/101 121/224/101 118/216/101 112/203/101
f 114/207/100 117/214/100 121/224/100 119/218/100
o Trigger&Trigger.001
v -0.887135 0.326670 -0.003155
v -0.895381 0.385429 -0.002650
v -0.889650 0.461913 -0.003154
v -0.835896 0.461598 -0.003154
v -0.913311 0.394017 0.000427
v -0.891125 0.421847 -0.001799
v -0.818835 0.331965 0.001868
v -0.855897 0.378302 0.002373
v -0.889977 0.447012 0.001868
v -0.843579 0.474157 0.001868
v -0.875698 0.376543 0.005449
v -0.870810 0.411797 0.003223
v -0.943811 0.578417 0.024326
v -0.725253 0.639159 0.000250
v -0.943811 0.578417 0.000250
v -0.929717 0.621195 0.000250
v -0.891101 0.599454 0.000250
v -0.909789 0.584185 0.020453
v -0.943503 0.581021 -0.023756
v -0.887135 0.326670 -0.003155
v -0.895381 0.385429 -0.002650
v -0.889650 0.461913 -0.003154
v -0.835896 0.461598 -0.003154
v -0.913311 0.394017 0.000427
v -0.891125 0.421847 -0.001799
v -0.818835 0.331965 0.001868
v -0.855897 0.378302 0.002373
v -0.889977 0.447012 0.001868
v -0.843579 0.474157 0.001868
v -0.875698 0.376543 0.005449
v -0.870810 0.411797 0.003223
vn 0.0173 0.0332 0.9993
vn 0.1658 -0.0071 0.9861
vn -0.0021 0.0373 0.9993
vn 0.1462 0.0785 0.9861
vn -0.2066 0.8630 0.4611
vn -0.9498 0.3129 -0.0000
vn 0.1625 0.5388 0.8266
vn -0.9496 0.3128 0.0218
vn -0.2265 0.9460 -0.2320
vn 0.2445 0.4342 -0.8670
vn -0.0173 -0.0332 -0.9993
vn -0.1658 0.0071 -0.9861
vn 0.0021 -0.0373 -0.9993
vn -0.1462 -0.0785 -0.9861
vt 0.359023 0.626596
vt 0.358816 0.561355
vt 0.384773 0.625089
vt 0.384567 0.559848
vt 0.371898 0.625843
vt 0.371692 0.560601
vt 0.359023 0.626596
vt 0.358816 0.561355
vt 0.384773 0.625089
vt 0.384567 0.559848
vt 0.371898 0.625843
vt 0.371692 0.560601
vt 0.379841 0.556585
vt 0.346661 0.566029
vt 0.389560 0.627715
vt 0.348322 0.605289
vt 0.369643 0.564004
vt 0.349018 0.608926
vt 0.374713 0.616391
vt 0.389871 0.634962
vt 0.356484 0.592545
vt 0.384441 0.603916
vt 0.353414 0.572913
vt 0.359975 0.575377
vt 0.396597 0.576958
vt 0.359023 0.626596
vt 0.358816 0.561355
vt 0.384773 0.625089
vt 0.384567 0.559848
vt 0.371898 0.625843
vt 0.371692 0.560601
vt 0.359023 0.626596
vt 0.358816 0.561355
vt 0.384773 0.625089
vt 0.384567 0.559848
vt 0.371898 0.625843
vt 0.371692 0.560601
s 0
usemtl Material.191
f 126/229/102 127/230/102 125/228/102 124/227/102
f 122/225/103 123/226/103 127/230/103 126/229/103
f 132/235/104 133/236/104 131/234/104 130/233/104
f 128/231/105 129/232/105 133/236/105 132/235/105
f 135/239/106 138/245/106 139/247/106
f 134/237/107 137/243/107 136/241/107
f 139/247/108 138/245/108 137/242/108 134/238/108
f 136/241/109 137/243/109 140/248/109
f 135/240/110 140/249/110 138/246/110
f 138/246/111 140/249/111 137/244/111
f 145/254/112 143/252/112 144/253/112 146/255/112
f 141/250/113 145/254/113 146/255/113 142/251/113
f 151/260/114 149/258/114 150/259/114 152/261/114
f 147/256/115 151/260/115 152/261/115 148/257/115
