# Blender 3.3.1
# www.blender.org
mtllib DoubleBarrelShotgun.mtl
o Body
v -2.279586 1.209707 0.000013
v -2.324481 1.677322 0.000014
v -1.266734 1.447855 0.000013
v -1.318789 1.722218 0.000014
v -0.465768 1.719609 0.000014
v -0.467447 1.855473 0.041343
v -0.467447 1.839410 0.000014
v -1.432398 1.494704 0.000013
v -1.436302 1.776875 0.000014
v -1.177194 1.583846 0.000013
v -0.709223 1.872204 0.074245
v -0.918939 1.691045 0.000014
v -0.709498 1.835668 0.037936
v -0.709387 1.846674 0.046266
v -2.302033 1.443515 0.107704
v -1.292761 1.585036 0.057811
v -0.466608 1.760960 0.041343
v -2.302033 1.443515 0.000013
v -1.434350 1.635789 0.079463
v -0.978738 1.735994 0.061106
v -0.822163 1.741277 0.040402
v -0.709223 1.909605 0.037451
v -0.709223 1.909149 0.000014
v -0.941584 1.562446 0.010300
v -0.817655 1.576056 0.013752
v -1.002562 1.587831 0.000014
v -0.991998 1.591152 0.010300
v -0.944384 1.551732 0.000013
v -0.807701 1.571204 0.000014
v -1.030718 1.644959 0.000014
v -0.999925 1.665825 0.010300
v -0.771610 1.629166 0.010300
v -0.761656 1.627728 0.000014
v -0.817800 1.704173 0.010300
v -0.795736 1.702129 0.000014
v -0.467447 1.855473 -0.041316
v -0.709223 1.872204 -0.074218
v -0.709498 1.835668 -0.037909
v -0.709387 1.846674 -0.046239
v -2.302033 1.443515 -0.107677
v -1.292761 1.585036 -0.057784
v -0.466608 1.760960 -0.041316
v -1.434350 1.635789 -0.079436
v -0.978738 1.735994 -0.061079
v -0.822163 1.741277 -0.040375
v -0.709223 1.909605 -0.037424
v -0.941584 1.562446 -0.010273
v -0.817655 1.576056 -0.013725
v -0.991998 1.591152 -0.010273
v -0.999925 1.665825 -0.010273
v -0.771610 1.629166 -0.010273
v -0.817800 1.704173 -0.010273
vn 0.2203 -0.4178 0.8814
vn -0.0592 0.4428 0.8947
vn 0.2540 0.4483 0.8571
vn -0.9954 -0.0956 -0.0000
vn -0.1802 0.3128 0.9326
vn -0.9998 0.0183 -0.0108
vn -0.0650 0.8762 -0.4775
vn 0.0083 -0.0340 0.9994
vn 0.0402 -0.6884 0.7242
vn 0.3737 -0.5343 0.7582
vn -0.0793 -0.4474 0.8908
vn 0.1358 -0.4354 0.8899
vn 0.2176 -0.6723 0.7076
vn 0.9999 0.0117 0.0020
vn -0.2511 0.6788 0.6900
vn -0.2932 0.9560 -0.0116
vn -0.3774 -0.6324 0.6765
vn 0.0833 -0.7824 0.6172
vn 0.0833 -0.7824 0.6171
vn -0.3918 -0.1073 0.9138
vn 0.5760 -0.4413 0.6881
vn 0.5395 0.2898 0.7906
vn 0.2203 -0.4178 -0.8814
vn -0.0592 0.4428 -0.8947
vn 0.2540 0.4483 -0.8571
vn -0.1802 0.3128 -0.9326
vn -0.9998 0.0183 0.0108
vn -0.0650 0.8762 0.4775
vn 0.0083 -0.0340 -0.9994
vn 0.0402 -0.6884 -0.7242
vn 0.3737 -0.5343 -0.7582
vn -0.0793 -0.4474 -0.8908
vn 0.1358 -0.4354 -0.8899
vn 0.2176 -0.6723 -0.7076
vn 0.9999 0.0117 -0.0020
vn -0.2511 0.6788 -0.6900
vn -0.2932 0.9560 0.0116
vn -0.3774 -0.6324 -0.6765
vn 0.0833 -0.7824 -0.6172
vn 0.0833 -0.7824 -0.6171
vn -0.3918 -0.1073 -0.9138
vn 0.5760 -0.4413 -0.6881
vn 0.5395 0.2898 -0.7905
vn 0.9944 0.1056 -0.0000
vn 0.4948 0.8690 -0.0000
vn -0.0398 0.9989 0.0250
vn -0.0398 0.9989 -0.0250
vn -0.1707 0.9851 -0.0205
vn -0.1092 0.9940 -0.0000
vn -0.7055 0.7079 0.0337
vn -0.7055 0.7079 -0.0337
vn -0.8037 0.5945 0.0248
vn -0.7684 0.6361 0.0703
vn -0.8515 -0.5244 -0.0000
vn -0.8863 -0.4618 -0.0362
vt 0.072562 0.321500
vt 0.036250 0.120414
vt 0.027693 0.503735
vt 0.117406 0.472693
vt 0.229288 0.315632
vt 0.219367 0.527097
vt 0.283703 0.551928
vt 0.381943 0.538399
vt 0.375000 0.625000
vt 0.381623 0.649772
vt 0.625000 0.750000
vt 0.625000 0.625000
vt 0.197714 0.354036
vt 0.196970 0.585342
vt 0.246353 0.427109
vt 0.735316 0.750000
vt 0.335543 0.653885
vt 0.295574 0.529379
vt 0.680158 0.625000
vt 0.680158 0.750000
vt 0.335512 0.630823
vt 0.101054 0.361021
vt 0.031972 0.312074
vt 0.224327 0.428085
vt 0.381783 0.572296
vt 0.500000 0.750000
vt 0.095181 0.397760
vt 0.197342 0.469689
vt 0.284177 0.551830
vt 0.314018 0.556161
vt 0.331803 0.664268
vt 0.323030 0.581039
vt 0.324789 0.650992
vt 0.360008 0.554728
vt 0.383627 0.565885
vt 0.348386 0.575537
vt 0.350399 0.578259
vt 0.359474 0.545945
vt 0.385524 0.561907
vt 0.343020 0.622367
vt 0.348889 0.639471
vt 0.363965 0.559689
vt 0.392403 0.609420
vt 0.394300 0.608243
vt 0.365862 0.558511
vt 0.355162 0.621176
vt 0.359367 0.619500
vt 0.381623 0.649772
vt 0.625000 0.750000
vt 0.735316 0.750000
vt 0.335543 0.653885
vt 0.680158 0.625000
vt 0.680158 0.750000
vt 0.335512 0.630823
vt 0.101054 0.361021
vt 0.031972 0.312074
vt 0.224327 0.428085
vt 0.381783 0.572296
vt 0.500000 0.750000
vt 0.197342 0.469689
vt 0.284177 0.551830
vt 0.314018 0.556161
vt 0.331803 0.664268
vt 0.323030 0.581039
vt 0.360008 0.554728
vt 0.383627 0.565885
vt 0.350399 0.578259
vt 0.348889 0.639471
vt 0.392403 0.609420
vt 0.363965 0.559689
vt 0.355162 0.621176
s 0
usemtl Material.182
f 21/30/1 14/21/1 11/17/1 20/29/1
f 19/28/2 9/14/2 2/3/2 15/23/2
f 16/24/3 4/6/3 9/14/3 19/28/3
f 15/22/4 2/4/4 18/27/4
f 20/29/5 11/17/5 4/6/5 16/24/5
f 13/19/6 11/16/6 14/20/6
f 7/12/7 13/19/7 14/20/7 6/11/7
f 17/25/8 6/10/8 14/21/8 21/30/8
f 5/8/9 17/25/9 21/30/9 12/18/9
f 10/15/10 20/29/10 16/24/10 3/5/10
f 1/1/4 15/22/4 18/27/4
f 3/5/11 16/24/11 19/28/11 8/13/11
f 8/13/12 19/28/12 15/23/12 1/2/12
f 12/18/13 21/30/13 20/29/13 10/15/13
f 5/9/14 7/12/14 6/11/14 17/26/14
f 11/17/15 22/31/15 4/6/15
f 22/32/16 23/33/16 4/7/16
f 24/34/17 27/37/17 26/36/17 28/38/17
f 24/34/18 28/38/18 29/39/19 25/35/18
f 27/37/20 31/41/20 30/40/20 26/36/20
f 29/39/21 33/44/21 32/43/21 25/35/21
f 33/45/22 35/47/22 34/46/22 32/42/22
f 45/62/23 44/61/23 37/51/23 39/54/23
f 43/60/24 40/56/24 2/3/24 9/14/24
f 41/57/25 43/60/25 9/14/25 4/6/25
f 40/55/4 18/27/4 2/4/4
f 44/61/26 41/57/26 4/6/26 37/51/26
f 38/52/27 39/53/27 37/50/27
f 7/12/28 36/49/28 39/53/28 38/52/28
f 42/58/29 45/62/29 39/54/29 36/48/29
f 5/8/30 12/18/30 45/62/30 42/58/30
f 10/15/31 3/5/31 41/57/31 44/61/31
f 1/1/4 18/27/4 40/55/4
f 3/5/32 8/13/32 43/60/32 41/57/32
f 8/13/33 1/2/33 40/56/33 43/60/33
f 12/18/34 10/15/34 44/61/34 45/62/34
f 5/9/35 42/59/35 36/49/35 7/12/35
f 37/51/36 4/6/36 46/63/36
f 46/64/37 4/7/37 23/33/37
f 47/65/38 28/38/38 26/36/38 49/67/38
f 47/65/39 48/66/39 29/39/40 28/38/39
f 49/67/41 26/36/41 30/40/41 50/68/41
f 29/39/42 48/66/42 51/69/42 33/44/42
f 33/45/43 51/70/43 52/71/43 35/47/43
f 31/41/44 27/37/44 49/67/44 50/68/44
f 27/37/45 24/34/45 47/65/45 49/67/45
f 25/35/46 48/66/47 47/65/48 24/34/49
f 32/43/50 51/69/51 48/66/52 25/35/53
f 34/46/54 52/71/54 51/70/54 32/43/55
o HandGaurd&Barrel
v -0.465665 1.719278 0.000003
v -0.467416 1.855431 0.040903
v 0.309738 1.769594 0.000003
v 0.309738 1.859654 0.061437
v -0.467416 1.855431 0.000003
v 0.309738 1.872060 0.000003
v -0.466540 1.760596 0.040903
v 0.309738 1.814624 0.061437
v 0.351655 1.814624 0.000003
v -0.466540 1.787355 0.000003
v -0.277466 1.731490 0.000003
v -0.278791 1.856456 0.061437
v -0.278791 1.856456 0.000003
v -0.278128 1.793973 0.061437
v -0.709164 1.872186 0.074631
v -0.709164 1.872186 0.074631
v 1.582077 1.872186 0.074631
v -0.709164 1.834615 0.037185
v -0.709164 1.909758 0.037185
v -0.709164 1.834615 0.037185
v -0.709164 1.909758 0.037185
v 1.582077 1.834615 0.037185
v 1.582077 1.909758 0.037185
v -0.709164 1.872186 0.000003
v -0.709164 1.872186 0.000003
v 1.582077 1.872186 0.000003
v -0.708858 1.909618 0.018028
v 1.581555 1.909618 0.018028
v -0.708858 1.890402 0.018028
v 1.581555 1.890402 0.018028
v -0.708858 1.909618 0.000003
v 1.581555 1.909618 0.000003
v -0.467416 1.855431 -0.040897
v 0.309738 1.859654 -0.061432
v -0.466540 1.760596 -0.040897
v 0.309738 1.814624 -0.061432
v -0.278791 1.856456 -0.061432
v -0.278128 1.793973 -0.061432
v -0.709164 1.872186 -0.074625
v -0.709164 1.872186 -0.074625
v 1.582077 1.872186 -0.074625
v -0.709164 1.834615 -0.037179
v -0.709164 1.909758 -0.037179
v -0.709164 1.834615 -0.037179
v -0.709164 1.909758 -0.037179
v 1.582077 1.834615 -0.037179
v 1.582077 1.909758 -0.037179
v -0.708858 1.909618 -0.018023
v 1.581555 1.909618 -0.018023
v -0.708858 1.890402 -0.018023
v 1.581555 1.890402 -0.018023
vn 0.8725 0.3569 0.3337
vn -0.1082 -0.0011 0.9941
vn -0.0054 1.0000 -0.0000
vn -0.9999 -0.0108 -0.0035
vn -0.9999 -0.0129 -0.0084
vn 0.0460 -0.7010 0.7117
vn 0.6548 -0.6096 0.4468
vn 0.0376 -0.7519 0.6582
vn -0.0159 0.9948 0.1004
vn -0.0000 -0.0000 1.0000
vn -0.0000 -0.7059 0.7083
vn -0.0000 0.7059 0.7083
vn -0.0000 1.0000 -0.0001
vn -0.0000 -0.0000 -1.0000
vn -0.0000 1.0000 -0.0000
vn -0.0000 -0.7034 -0.7108
vn -0.0000 0.7034 -0.7108
vn -1.0000 -0.0000 -0.0000
vn 1.0000 -0.0000 -0.0000
vn 0.8725 0.3569 -0.3337
vn -0.1082 -0.0011 -0.9941
vn -0.9999 -0.0108 0.0035
vn -0.9999 -0.0129 0.0084
vn 0.0460 -0.7010 -0.7117
vn 0.6548 -0.6096 -0.4468
vn 0.0376 -0.7519 -0.6582
vn -0.0159 0.9948 -0.1004
vn -0.0000 -0.7059 -0.7083
vn -0.0000 0.7059 -0.7083
vn -0.0000 -0.7034 0.7108
vn -0.0000 0.7034 0.7108
vn 1.0000 0.0092 -0.0000
vt 0.357809 0.580881
vt 0.406634 0.547673
vt 0.408030 0.626125
vt 0.875000 0.750000
vt 0.411370 0.688962
vt 0.568784 0.600343
vt 0.625000 0.750000
vt 0.569528 0.664854
vt 0.875000 0.625000
vt 0.388449 0.707987
vt 0.569528 0.662409
vt 0.625000 0.625000
vt 0.370840 0.634922
vt 0.406464 0.582164
vt 0.569528 0.627265
vt 0.577663 0.627265
vt 0.367918 0.675453
vt 0.455810 0.565335
vt 0.814322 0.750000
vt 0.455800 0.653650
vt 0.814322 0.625000
vt 0.455433 0.610026
vt 0.643427 0.691205
vt 0.125000 0.750000
vt 0.875000 0.750000
vt 0.125000 0.750000
vt 0.875000 0.750000
vt 0.739229 0.301636
vt 0.872246 0.691205
vt 0.740015 0.311500
vt 0.125000 0.625000
vt 0.760668 0.209117
vt 0.875000 0.625000
vt 0.760668 0.428024
vt 0.643427 0.666041
vt 0.598644 0.662271
vt 0.125000 0.625000
vt 0.643427 0.716370
vt 0.598644 0.716938
vt 0.875000 0.625000
vt 0.872246 0.666041
vt 0.843336 0.658004
vt 0.761679 0.218013
vt 0.872246 0.716370
vt 0.843336 0.712671
vt 0.761679 0.404987
vt 0.598644 0.689605
vt 0.125000 0.750000
vt 0.875000 0.750000
vt 0.125000 0.750000
vt 0.875000 0.750000
vt 0.784470 0.301636
vt 0.843336 0.685338
vt 0.783342 0.311500
vt 0.356250 0.607527
vt 0.395977 0.598572
vt 0.371202 0.587187
vt 0.396297 0.612721
vt 0.367672 0.602516
vt 0.396732 0.584338
vt 0.367843 0.573192
vt 0.408030 0.626125
vt 0.875000 0.750000
vt 0.411370 0.688962
vt 0.625000 0.750000
vt 0.569528 0.664854
vt 0.370840 0.634922
vt 0.406464 0.582164
vt 0.569528 0.627265
vt 0.814322 0.750000
vt 0.455800 0.653650
vt 0.455433 0.610026
vt 0.643427 0.691205
vt 0.125000 0.750000
vt 0.875000 0.750000
vt 0.125000 0.750000
vt 0.875000 0.750000
vt 0.739229 0.301636
vt 0.872246 0.691205
vt 0.740015 0.311500
vt 0.125000 0.625000
vt 0.760668 0.209117
vt 0.875000 0.625000
vt 0.760668 0.428024
vt 0.643427 0.666041
vt 0.598644 0.662271
vt 0.125000 0.625000
vt 0.643427 0.716370
vt 0.598644 0.716938
vt 0.875000 0.625000
vt 0.872246 0.666041
vt 0.843336 0.658004
vt 0.761679 0.218013
vt 0.872246 0.716370
vt 0.843336 0.712671
vt 0.761679 0.404987
vt 0.395977 0.598572
vt 0.371202 0.587187
vt 0.396297 0.612721
vt 0.367672 0.602516
s 0
usemtl Material.183
f 61/87/56 58/82/56 56/79/56 60/86/56
f 66/93/57 64/91/57 54/74/57 59/85/57
f 65/92/58 57/80/58 54/75/58 64/90/58
f 59/84/59 54/76/59 57/81/59 62/88/59
f 53/72/60 59/84/60 62/88/60
f 63/89/61 66/93/61 59/85/61 53/73/61
f 55/77/62 61/87/62 60/86/62
f 55/77/63 60/86/63 66/93/63 63/89/63
f 58/83/64 65/92/64 64/90/64 56/78/64
f 60/86/65 56/79/65 64/91/65 66/93/65
f 72/106/66 74/112/66 69/100/66 67/94/66
f 75/115/67 73/109/67 67/94/67 69/100/67
f 72/108/68 67/95/69 68/97/70 70/102/69
f 67/96/70 73/111/69 71/104/68 68/98/69
f 72/107/71 76/118/71 78/124/71 74/113/71
f 75/116/72 78/124/72 76/118/72 73/110/72
f 72/108/65 70/102/70 77/121/65 76/119/70
f 76/120/65 77/122/70 71/104/65 73/111/70
f 80/128/65 79/127/65 81/129/65 82/130/65
f 79/127/70 80/128/70 84/132/70 83/131/70
f 71/105/73 77/123/73 70/103/73 68/99/73
f 74/114/74 78/125/74 75/117/74 69/101/74
f 61/87/75 88/140/75 86/137/75 58/82/75
f 90/143/76 87/139/76 85/133/76 89/142/76
f 65/92/58 89/141/58 85/134/58 57/80/58
f 87/138/77 62/88/77 57/81/77 85/135/77
f 53/72/78 62/88/78 87/138/78
f 63/89/79 53/73/79 87/139/79 90/143/79
f 55/77/80 88/140/80 61/87/80
f 55/77/81 63/89/81 90/143/81 88/140/81
f 58/83/82 86/136/82 89/141/82 65/92/82
f 88/140/69 90/143/69 89/142/69 86/137/69
f 96/156/83 91/144/83 93/150/83 98/162/83
f 99/165/84 93/150/84 91/144/84 97/159/84
f 96/158/69 94/152/70 92/147/69 91/145/68
f 91/146/69 92/148/68 95/154/69 97/161/70
f 96/157/85 98/163/85 78/124/85 76/118/85
f 99/166/86 97/160/86 76/118/86 78/124/86
f 96/158/70 76/119/65 77/121/70 94/152/65
f 76/120/70 97/161/65 95/154/70 77/122/65
f 101/169/69 103/171/69 102/170/69 100/168/69
f 100/168/70 83/131/70 84/132/70 101/169/70
f 95/155/73 92/149/73 94/153/73 77/123/73
f 98/164/74 93/151/74 99/167/74 78/125/74
f 84/132/87 80/128/87 82/130/87 78/126/87 103/171/87 101/169/87
o ShellLowPolyGreen.005
v -0.570067 1.470909 0.023928
v -0.570067 1.650339 0.023928
v -0.593982 1.470909 0.000013
v -0.593982 1.650339 0.000014
v -0.546153 1.470909 0.000013
v -0.546153 1.650339 0.000014
v -0.570067 1.521723 0.023928
v -0.546153 1.521723 0.000013
v -0.593982 1.521723 0.000013
v -0.570067 1.470909 -0.023901
v -0.570067 1.650339 -0.023901
v -0.570067 1.521723 -0.023901
vn 0.7071 -0.0000 0.7071
vn -0.0000 -1.0000 -0.0000
vn -0.0000 1.0000 -0.0000
vn -0.7071 -0.0000 0.7071
vn 0.7071 -0.0000 -0.7071
vn -0.7071 -0.0000 -0.7071
vt 0.821587 0.484619
vt 0.183923 0.104482
vt 0.002034 0.104482
vt 0.625000 0.750000
vt 0.758309 0.818041
vt 0.525350 0.311899
vt 0.013595 0.105289
vt 0.875000 0.625000
vt 0.529300 0.818041
vt 0.984330 0.177612
vt 0.172362 0.103675
vt 0.987318 0.818041
vt 0.625000 0.625000
vt 0.758309 0.515532
vt 0.185638 0.466411
vt 0.003749 0.466411
vt 0.987318 0.515532
vt 0.174077 0.465604
vt 0.529300 0.515532
vt 0.015310 0.467218
vt 0.821587 0.484619
vt 0.183923 0.104482
vt 0.002034 0.104482
vt 0.625000 0.750000
vt 0.758309 0.818041
vt 0.758309 0.515532
vt 0.185638 0.466411
vt 0.003749 0.466411
s 0
usemtl Material.184
f 111/188/88 109/183/88 105/176/88 110/185/88
f 106/177/89 108/181/89 104/172/89
f 109/184/90 107/179/90 105/175/90
f 110/185/91 105/176/91 107/180/91 112/190/91
f 104/173/91 110/186/91 112/191/91 106/178/91
f 108/182/88 111/189/88 110/187/88 104/174/88
f 111/188/92 115/197/92 114/196/92 109/183/92
f 106/177/89 113/192/89 108/181/89
f 109/184/90 114/195/90 107/179/90
f 115/197/93 112/190/93 107/180/93 114/196/93
f 113/193/93 106/178/93 112/191/93 115/198/93
f 108/182/92 113/194/92 115/199/92 111/189/92
o ShellLowPolyRed.005
v -0.510730 1.650409 -0.024117
v -0.510730 1.470728 -0.024117
v -0.486598 1.650409 0.000014
v -0.486598 1.470728 0.000013
v -0.534860 1.650409 0.000014
v -0.534860 1.470728 0.000013
v -0.510730 1.521519 -0.024117
v -0.534860 1.521519 0.000013
v -0.486598 1.521519 0.000013
v -0.510730 1.650409 0.024146
v -0.510730 1.470728 0.024146
v -0.510730 1.521519 0.024146
vn -0.7071 -0.0000 -0.7071
vn -0.0000 1.0000 -0.0000
vn -0.0000 -1.0000 -0.0000
vn 0.7071 -0.0000 -0.7071
vn -0.7072 -0.0000 0.7071
vn 0.7071 -0.0000 0.7071
vn -0.7071 -0.0000 0.7071
vt 0.238621 1.001621
vt 0.248625 0.890355
vt 0.018398 0.466638
vt 0.761304 0.001869
vt 0.020464 0.121861
vt 0.495392 0.936879
vt 0.495386 0.890355
vt 0.994736 0.241086
vt 0.231272 0.121861
vt 0.008178 0.941105
vt 0.001864 0.890355
vt 0.229197 0.468648
vt 0.519943 0.238291
vt 0.021755 0.114614
vt 0.020464 0.473901
vt 0.248625 0.511575
vt 0.232554 0.116624
vt 0.001864 0.511575
vt 0.231272 0.473901
vt 0.495386 0.511575
vt 0.238621 1.001621
vt 0.248625 0.890355
vt 0.018398 0.466638
vt 0.761304 0.001869
vt 0.020464 0.121861
vt 0.021755 0.114614
vt 0.020464 0.473901
vt 0.248625 0.511575
s 0
usemtl Material.185
f 123/216/94 122/213/94 117/202/94 121/211/94
f 118/205/95 116/200/95 120/209/95
f 121/212/96 117/203/96 119/207/96
f 122/214/97 124/218/97 119/208/97 117/204/97
f 116/201/97 118/206/97 124/219/97 122/215/97
f 120/210/94 116/201/94 122/215/94 123/217/94
f 123/216/98 121/211/98 126/222/98 127/225/98
f 118/205/95 120/209/95 125/220/95
f 121/212/96 119/207/96 126/223/96
f 127/226/99 126/224/99 119/208/99 124/218/99
f 125/221/99 127/227/99 124/219/99 118/206/99
f 120/210/100 123/217/100 127/227/100 125/221/100
o Trigger&Trigger
v -0.913113 1.581595 -0.003150
v -0.921380 1.640505 -0.002643
v -0.915635 1.717185 -0.003149
v -0.861742 1.716870 -0.003149
v -0.939356 1.649115 0.000441
v -0.917113 1.677016 -0.001791
v -0.844637 1.586903 0.001886
v -0.881794 1.633359 0.002392
v -0.915962 1.702247 0.001886
v -0.869444 1.729462 0.001886
v -0.901647 1.631596 0.005477
v -0.896745 1.666941 0.003245
v -0.969935 1.833990 0.024402
v -0.750814 1.894889 0.000264
v -0.969935 1.833990 0.000264
v -0.955805 1.876878 0.000264
v -0.917089 1.855081 0.000264
v -0.935825 1.839773 0.020519
v -0.969626 1.836601 -0.023804
v -0.913113 1.581595 -0.003150
v -0.921380 1.640505 -0.002643
v -0.915635 1.717185 -0.003149
v -0.861742 1.716870 -0.003149
v -0.939356 1.649115 0.000441
v -0.917113 1.677016 -0.001791
v -0.844637 1.586903 0.001886
v -0.881794 1.633359 0.002392
v -0.915962 1.702247 0.001886
v -0.869444 1.729462 0.001886
v -0.901647 1.631596 0.005477
v -0.896745 1.666941 0.003245
vn 0.0173 0.0331 0.9993
vn 0.1658 -0.0071 0.9861
vn -0.0021 0.0373 0.9993
vn 0.1463 0.0785 0.9861
vn -0.2066 0.8630 0.4611
vn -0.9498 0.3129 -0.0000
vn 0.1625 0.5388 0.8266
vn -0.9496 0.3128 0.0218
vn -0.2265 0.9460 -0.2320
vn 0.2445 0.4342 -0.8670
vn -0.0173 -0.0331 -0.9993
vn -0.1658 0.0071 -0.9861
vn 0.0021 -0.0373 -0.9993
vn -0.1463 -0.0785 -0.9861
vt 0.359023 0.626596
vt 0.358816 0.561355
vt 0.384773 0.625089
vt 0.384567 0.559848
vt 0.371898 0.625843
vt 0.371692 0.560601
vt 0.359023 0.626596
vt 0.358816 0.561355
vt 0.384773 0.625089
vt 0.384567 0.559848
vt 0.371898 0.625843
vt 0.371692 0.560601
vt 0.379841 0.556585
vt 0.346661 0.566029
vt 0.389560 0.627715
vt 0.348322 0.605289
vt 0.369643 0.564004
vt 0.349018 0.608926
vt 0.374713 0.616391
vt 0.389871 0.634962
vt 0.356484 0.592545
vt 0.384441 0.603916
vt 0.353414 0.572913
vt 0.359975 0.575377
vt 0.396597 0.576958
vt 0.359023 0.626596
vt 0.358816 0.561355
vt 0.384773 0.625089
vt 0.384567 0.559848
vt 0.371898 0.625843
vt 0.371692 0.560601
vt 0.359023 0.626596
vt 0.358816 0.561355
vt 0.384773 0.625089
vt 0.384567 0.559848
vt 0.371898 0.625843
vt 0.371692 0.560601
s 0
usemtl Material.186
f 132/232/101 133/233/101 131/231/101 130/230/101
f 128/228/102 129/229/102 133/233/102 132/232/102
f 138/238/103 139/239/103 137/237/103 136/236/103
f 134/234/104 135/235/104 139/239/104 138/238/104
f 141/242/105 144/248/105 145/250/105
f 140/240/106 143/246/106 142/244/106
f 145/250/107 144/248/107 143/245/107 140/241/107
f 142/244/108 143/246/108 146/251/108
f 141/243/109 146/252/109 144/249/109
f 144/249/110 146/252/110 143/247/110
f 151/257/111 149/255/111 150/256/111 152/258/111
f 147/253/112 151/257/112 152/258/112 148/254/112
f 157/263/113 155/261/113 156/262/113 158/264/113
f 153/259/114 157/263/114 158/264/114 154/260/114
